<?xml version="1.0" encoding="utf-8"?>
<!-- Generator: Adobe Illustrator 18.1.1, SVG Export Plug-In . SVG Version: 6.00 Build 0)  -->
<svg version="1.1" id="Objects" xmlns="http://www.w3.org/2000/svg" xmlns:xlink="http://www.w3.org/1999/xlink" x="0px" y="0px"
	 viewBox="0 0 110 99" enable-background="new 0 0 110 99" xml:space="preserve">
<g>
	<g>
		<path fill="#629B21" d="M100.8,42.8c0.7-1.5,1.2-3,1.5-4.7c0.4-2.2-2.2-4.6-4.3-3c-0.2,0.1-0.3,0.2-0.5,0.4
			c0.9-2.5,1.1-5.2,0.4-7.9c-0.2-0.9-1.5-1.5-2.2-0.8c-2,1.6-3.8,3.5-5.5,5.4c1.2-2.7,2.8-5.8,2.5-8.7c-0.1-1.3-1.4-2.6-2.9-2
			c-3.2,1.3-5.1,4.7-7,7.6c0-0.1,0.1-0.3,0.1-0.4c0.4-2.3-2.6-4.3-4.3-2.3c-1.7,2-2.9,4.2-3.9,6.6c-0.2-0.5-0.4-1-0.6-1.6
			c-0.7-1.7-3.4-2.4-4.2-0.4c-1.3,3.1-2.2,6.7-2.6,10.4c-0.1-0.2-0.2-0.4-0.3-0.5c-0.9-1.3-2.6-1.4-3.8-0.4
			c-3.1,2.8-1.7,8.5-0.4,11.8c1.2,2.8,2.8,5.8,5.1,8.1c-0.4,0.3-0.9,0.7-1.3,1c-2.2,1.9-0.8,6,2,6.4c2.9,0.5,5.8,0.2,8.7-0.6
			c0.2,0.2,0.5,0.3,0.7,0.4c2.3,1.1,5.3-0.1,5.9-2.7c0-0.1,0-0.1,0-0.2c2.2-1,4.4-2.2,6.4-3.2c6-3.2,14-9,14.1-16.6
			C104.6,43.1,102.4,41.8,100.8,42.8z"/>
		<path fill="#A4BE24" d="M73.2,29.9c0.8-2.1-0.9-5.5-3.6-4.3c-0.8,0.3-1.5,0.7-2.3,1c1.7-2.1,3.1-4.3,3.8-6.9
			c0.7-2.5-1.9-4.3-4.1-3.9c-2.3,0.5-4.4,1.6-6.4,3c0.2-0.8,0.3-1.5,0.4-2.3c0.3-2.4-2.5-4.4-4.4-2.3c-1.8,2-3.9,4.3-5.8,6.9
			c-0.6-1.8-1.8-3-4.2-2.5c-4,0.8-5.4,5.7-6.1,9.4c0,0-0.1-0.1-0.1-0.1c-3.2-1.9-6.7,1.6-5.8,4.8c0.8,3.2,1.6,6.6,3.9,9
			c-0.1,0-0.1,0-0.2,0c-3.9-0.1-5.5,4.3-4,7.4c5.3,10.4,25.9,9.1,33.2,1.9c1.7-1.6,0.5-4.2-1.5-4.8c-0.3-0.1-0.6-0.1-0.9-0.2
			c2.3-1.4,4.4-3.1,6-4.9c1-1.2,0.7-3.5-1.2-3.8c-0.9-0.1-1.8-0.2-2.7-0.2C69.9,35.1,72.1,32.8,73.2,29.9z"/>
		<circle fill="#D63A26" cx="43" cy="46.5" r="8.5"/>
		<circle fill="#D63A26" cx="80" cy="49.5" r="8.5"/>
		<path fill="#629B21" d="M40.3,42.7c-0.5-2.2-2.9-3.4-5-3.1c0.1-1.5,0-3.1-0.4-4.6c-0.7-2.5-4.2-3.4-5.9-1.4
			c-0.1,0.1-0.1,0.1-0.1,0.2c-0.9-2.5-2.4-4.9-3.9-6.3c-1.5-1.5-4.6-1.2-5.5,0.9c-0.6,1.4-0.9,3-1.1,4.6c-0.6-0.3-1.2-0.6-1.9-0.9
			c-1-0.3-2-0.3-3,0c-1.3,0.3-2.2,1.2-2.9,2.3c-0.5,0.7-0.7,1.9-0.6,2.7c0.1,1,0.4,2,1,2.9c0.3,0.4,0.6,0.8,1,1.1
			c-3.1,1.1-4,6.3-0.5,7.7c1.1,0.5,2.3,0.8,3.4,1.2c-1.5,1.3-1.3,3.4,0,4.9c1.6,1.8,4.3,2.2,6.5,2.8c2.2,0.6,4,1,6,0.5
			c-1.2,2.7-2,5.6-0.2,7.9c1.5,1.9,3.5,2.5,5.7,1.4c3.3-1.7,4.6-8.2,6-11.5C40.4,51.6,41.3,47.3,40.3,42.7z"/>
		<path fill="#FFFFFF" d="M91.1,54.5c-4.9,6.1-13.2,7.7-19.9,4.4c0.7,0.9,1.5,1.7,2.5,2.5c7,5.6,17.2,4.5,22.8-2.5
			c5.6-7,4.5-17.2-2.5-22.8c-0.9-0.8-1.9-1.4-3-1.9C95.8,40,96,48.5,91.1,54.5z"/>
		<path fill="#FFFFFF" d="M65.9,53.7c-5.3-5.3-6-13.4-2.1-19.5c-0.9,0.6-1.8,1.3-2.7,2.1c-6.1,6.1-6.1,16-0.1,22.1
			c6.1,6.1,16,6.1,22.1,0.1c0.8-0.8,1.5-1.7,2.1-2.6C79.3,59.7,71.2,59,65.9,53.7z"/>
		<path fill="#FFFFFF" d="M31.5,54.5c-7.4-1-12.9-7.1-13.4-14.2c-0.4,1-0.7,2.1-0.8,3.3C16.1,52,22,59.9,30.6,61.1
			c8.6,1.2,16.4-4.8,17.6-13.3c0.2-1.1,0.2-2.3,0.1-3.4C45.8,51.1,38.9,55.5,31.5,54.5z"/>
	</g>
	<g>
		<path fill="#454C53" d="M9.4,51.2C10,77,31.1,97.8,57,97.8c26,0,47.1-20.8,47.7-46.6H9.4z"/>
		<path fill="#F9AA3C" d="M78,96.3c0,1.5-1.2,2.8-2.8,2.8H38.8c-1.5,0-2.8-1.2-2.8-2.8v-0.5c0-1.5,1.2-2.8,2.8-2.8h36.5
			c1.5,0,2.8,1.2,2.8,2.8V96.3z"/>
	</g>
</g>
</svg>
