<?xml version="1.0" encoding="utf-8"?>
<!-- Generator: Adobe Illustrator 18.1.1, SVG Export Plug-In . SVG Version: 6.00 Build 0)  -->
<svg version="1.1" id="_x31_200X800" xmlns="http://www.w3.org/2000/svg" xmlns:xlink="http://www.w3.org/1999/xlink" x="0px"
	 y="0px" viewBox="0 0 1200 800" enable-background="new 0 0 1200 800" xml:space="preserve">
<g>
	<g>
		<rect fill="#F9F6EF" width="1200" height="800"/>
		<g>
			<circle fill="#F4F1EA" cx="600" cy="400" r="370.6"/>
			<circle fill="#EFEBE4" cx="600" cy="400" r="236.3"/>
		</g>
	</g>
	<g>
		<g>
			<defs>
				<rect id="SVGID_1_" width="1200" height="800"/>
			</defs>
			<clipPath id="SVGID_2_">
				<use xlink:href="#SVGID_1_"  overflow="visible"/>
			</clipPath>
			<g clip-path="url(#SVGID_2_)">
				<path fill="#80DBE5" d="M827.9,330.8c0,125.8-102,227.9-227.9,227.9c-125.8,0-227.9-102-227.9-227.9
					c0-125.8,102-227.9,227.9-227.9C725.8,102.9,827.9,205,827.9,330.8z"/>
				<g>
					<path fill="#4FC6A7" d="M684,195.9c-2.9-2.9-5.1,5.8-2,6.8C685,203.6,688.6,200.5,684,195.9z"/>
					<path fill="#4FC6A7" d="M523.2,519c-1.5-8.7-12.8-7.2-18.4-4.6c-5.6,2.6-4.6,14.8-2.9,22.1c12.1,5.8,24.7,10.5,37.8,14.1
						c0.2-1.2-0.1-2.6-1.1-4.5C535.7,541.2,524.7,527.7,523.2,519z"/>
					<path fill="#4FC6A7" d="M784.3,242.5c3.6-1.5,10.8,22.5,32.5,18.2c0-0.1,0-0.1-0.1-0.2c-0.5-1.3-3.4-9.2-7.1-19
						c-6.7-15.7-15.1-30.5-25-44.1c1.4,2.1,7.3,21-0.4,21.6c-7.7,0.5-9.2-18.4-9.2-21c0-2.5-7.4-21.1-7.5-21.5
						c-0.3-0.3-0.6-0.7-0.9-1c-1-1-2.7-2.8-4.9-5.1c-12.9-13-27.3-24.4-43-34c-0.9,2.6,0.7,7.2-1.1,9.3
						c-2.6,3.1-10.2,10.8-18.9,10.2c-8.7-0.5-12.8-4.6-7.7-7.7c5.1-3.1,8.1-1,10.2-10.8c2-8.9-0.1-10.8-0.5-11.1
						c-9.7-4.8-19.7-8.9-30.1-12.3c-3.7,9.5-4.7,18.7,3.5,19.3c8.2,0.5,12.8,2.6,10.2,8.7c-2.6,6.1-6.1,7.2-11.8,10.8
						c-5.6,3.6-11.8,8.7-12.8,3.6c-1-5.1-7.2-13.3-9.2-18.9c-2-5.6-2.6-11.3-6.7-6.1c-4.1,5.1-9,9.7-12.9,15.4
						c-4,5.6,4.2,6.1,11.9,9.2c7.7,3.1,9.2,8.2,7.2,11.8c-2.1,3.6,3.3,4.8,5.1,8.7c1.2,2.7,4.1,8.2,0,10.8
						c-4.1,2.6-17.4-5.1-21.5-2.6c-4.1,2.6-1,17.9-2.6,21c-1.5,3.1,10.4,4.1,13.1,6.7c2.7,2.6,13-3.1,15.5-7.2
						c2.6-4.1,2.1-8.7,7.2-13.3c5.1-4.6,9.7-2.6,13.8-4.1c4.1-1.5,0-4.1,4.1-1.5c4.1,2.6,20.5,12.8,19.5,15.9c-1,3.1-8.2,1-8.7,5.1
						c-0.5,4.1,3.6,5.9,6.1,5.8c2.6-0.1,6.7-6.8,9.2-8.3c2.6-1.5,7.7,4.9,13.8,8.3c6.2,3.4,8.2-10.4,11.3-12.4
						c3.1-2.1,25.6-1.5,26.1,1.5c0.5,3.1-21-0.5-23.6,6.1c-2.6,6.7,8.2,8.7,13.8,12.8c5.6,4.1,9.2,18.4,9.7,28.7
						c0.5,10.2,12.3,41,22.5,41.5c10.2,0.5,25.1-13.8,23-19.5c-2-5.6-14.3-3.1-17.9-11.8C786.4,251.2,780.8,244,784.3,242.5z"/>
					<path fill="#4FC6A7" d="M776.1,294.7c-4.6-6.7-20.5-37.4-22-47.1c-1.5-9.7-20-11.8-25.1-14.8c-5.1-3.1-12.3,2.6-20-2.6
						c-7.7-5.1-22-19.5-28.7-19.5c-6.7,0-32.3,6.7-38.9,4.6c-3.8-1.2-10,1.5-11.4,10.8c-1.4,9.2-9.1,11.3-14.2,18.4
						c-5.1,7.2-7.2,36.4-4.6,46.6c2.6,10.2,16.9,26.1,26.6,27.6c9.7,1.5,25.1,1.5,34.3,0c9.2-1.5,18.4,8.2,18.4,17.4
						c0,9.2,10.2,18.9,9.7,27.1c-0.5,8.2-7.1,25.1,0,39.4c7.1,14.3,17.4,27.7,17.9,32.3c0.5,4.6,20.5-2,30.2-13.8
						c9.7-11.8,10.2-10.8,13.3-23c3.1-12.3,9.7-16.9,10.7-23.6c1-6.7,1-13.8,0-23.6c-1-9.7,17.9-32.3,19-41
						C792.5,301.4,780.8,301.4,776.1,294.7z"/>
					<path fill="#4FC6A7" d="M536,345.9c-9.7-5.6-19.5-6.1-24.1-11.8c-4.6-5.6-4.1-4.1-12.3-12.8c-8.2-8.7-14.3-7.7-25.1-14.9
						c-10.8-7.2-20.1-12.8-25.9-8.2c-5.9,4.6-10.7,12.4-9.9,15.3c0.6,2.3,2,9.8-2,17.2c-4.1,7.4-5.6,13.6,0,25.9
						c5.6,12.3,13.8,16.4,20,27.7c6.1,11.3,5.1,29.2,6.1,55.8c1,26.6,10.2,47.6,25.6,53.8c15.4,6.1-5.6-9.2-4.1-19.5
						c1.5-10.2,1-15.9,6.7-23.6c5.6-7.7,9.1-4.6,16.1-18.4c7-13.8,4.9-18.4,13.1-23c8.2-4.6,20,0.5,22.5-15.4
						c2.6-15.9-7.7-11.3,3.6-25.6C557.5,354.1,545.7,351.5,536,345.9z"/>
					<path fill="#4FC6A7" d="M428,300.9c-3.6-8.2-8.2-17.4-7.2-23.3c1-5.9-5.1-7.9-9.2-3.3c-4.1,4.6-6.7,5.6-8.7-5.1
						c-2-10.8,9.7-12.3,15.9-14.9c6.1-2.6,9.2,2.1,13.3,5.6c4.1,3.6,3.6-2.6,4.6-13.8c1-11.3,18.9-32.8,24.6-43.3
						c5.6-10.5,11.8-14.1,13.3-19.7c1.5-5.6,13.8-3.1,24.1,0.5c10.2,3.6,9.7-3.1,5.6-8.2c-4.1-5.1-7.7-6.7-3.6-10.2
						c4.1-3.6-1-6.7-5.1-11.8c-4.1-5.1-4.1-12.3-5.6-14.5c-1.5-2.2-7.7,7.4-12.8,7.9c-5.1,0.5-1.4-6.9,0-7.9
						c-5.4,3.4-10.6,7.1-15.6,11c1.8,8.2-6.4,12.3-9,15.8c-2.6,3.6,0.5,12.8-2,13.3c-2.6,0.5-5.1-10.2-5.5-15.2
						c-27.4,25.4-48.5,57.4-60.8,93.5c3.9,9.7,6.3,18,7.8,27.2c1.5,9.2,15.9,4.1,20.5,11.3c4.6,7.2,13.3,13.3,18.9,16.9
						C437.2,316.2,431.5,309,428,300.9z"/>
					<path fill="#4FC6A7" d="M528.8,129.3c3.6,6.1,10.2,10.7,13.8,0c3.6-10.7,8.4-21,8.5-21.1c-10.8,2.4-21.3,5.5-31.5,9.3
						C522.7,121.1,525.2,123.2,528.8,129.3z"/>
					<path fill="#4FC6A7" d="M786.4,364.9c-4.1,4.6-13.8,13.3-13.8,20c0,6.7,0,6.7,0,6.7c-4.1,7.7-12.8,17.4-10.7,22.5
						c2,5.1,4.6,5.6,10.7-4.1c6.1-9.7,12.3-23.5,13.8-31.7C787.9,370,790.5,360.3,786.4,364.9z"/>
					<path fill="#4FC6A7" d="M665.1,541.1c-11.8,0.6-26.6,0.9-38.9,7.1c-12.3,6.1-12.8,5.6-24.1,9.7c-0.7,0.2-1.3,0.5-1.8,0.7
						c33.5,0,65.3-7.3,93.9-20.3C686,534.1,676.3,540.6,665.1,541.1z"/>
				</g>
			</g>
			<g clip-path="url(#SVGID_2_)">
				<g>
					<path fill="#F2BDAD" d="M388.1,372.8c0,0,62.3,1,75.2-2.7c0,0,9.7-10.2,22.4-29.5c9.8-14.9,17.6-27.3,23-41.5
						c1.6-4.2,6.2-4.1,9.9-1.9c5.9,3.5,9.2,10.1,5.1,25.7c-4.4,16.7-4.5,23,0.8,27.7c11.6,10.4,74.6-18.4,86.9-22.8
						c0,0,9.4-3.7,13.3,4.3c4.7,9.5-5.8,13.8-5.8,13.8s-49,22-52.3,24.3c-4.1,2.8-2.6,6-2.6,6s0.8,4.3,5.7,3.7
						c5.8-0.7,66.4-10.3,69.4-10.8c5.7-0.9,11.3,1.9,12.1,8.8c0.8,6.7-4.5,11.2-8.9,12c-3.5,0.6-71.3,8.4-71.3,8.4s-3.9,0.1-4.1,5.1
						c-0.1,3.4,2.1,5.1,4.7,5.6c2.7,0.5,56.8,8.4,60.8,9c5.2,0.8,10.3,5.3,8.8,12.3c-1.6,7.5-8.6,8.9-14.9,7.8
						c-5.1-0.9-61.7-11.5-63.5-12.1c-4.4-1.4-9,4.6-5.2,8.5c3,3,29.3,20.5,31.6,22.1c3.3,2.3,6.8,6.8,3.4,12.9
						c-4.2,7.6-14.3,2.1-16.9,0.5c-5.7-3.4-38.6-20.2-41.3-21.7c-2.7-1.5-36.7-0.7-64.4-21c0,0-64.1,4.5-81.8,9.6V372.8z"/>
					<g>
						<rect x="0" y="362" fill="#65CE9C" width="462.3" height="82.4"/>
						<rect x="432" y="362" fill="#75EAAF" width="30.3" height="82.4"/>
					</g>
				</g>
				<g>
					<path fill="#6D5252" d="M811.9,419c0,0-62.3-1-75.2,2.7c0,0-9.7,10.2-22.4,29.5c-9.8,14.9-17.6,27.3-23,41.5
						c-1.6,4.2-6.2,4.1-9.9,1.9c-5.9-3.5-9.2-10.1-5.1-25.7c4.4-16.7,4.5-23-0.8-27.7c-11.6-10.4-74.6,18.4-86.9,22.8
						c0,0-9.4,3.7-13.3-4.3c-4.7-9.5,5.8-13.8,5.8-13.8s49-22,52.3-24.3c4.1-2.8,2.6-6,2.6-6s-0.8-4.3-5.7-3.7
						c-5.8,0.7-66.4,10.3-69.4,10.8c-5.7,0.9-11.3-1.9-12.1-8.8c-0.8-6.7,4.5-11.2,8.9-12c3.5-0.6,71.3-8.4,71.3-8.4
						s3.9-0.1,4.1-5.1c0.1-3.4-2.1-5.1-4.7-5.6c-2.7-0.5-56.8-8.4-60.8-9c-5.2-0.8-10.3-5.3-8.8-12.3c1.6-7.5,8.6-8.9,14.8-7.8
						c5.1,0.9,61.7,11.5,63.5,12.1c4.4,1.4,9-4.6,5.2-8.5c-3-3-29.3-20.5-31.6-22.1c-3.3-2.3-6.8-6.8-3.4-12.9
						c4.2-7.6,14.3-2.1,16.9-0.5c5.7,3.4,38.6,20.2,41.3,21.7c2.7,1.5,36.7,0.7,64.4,21c0,0,64.1-4.5,81.8-9.6V419z"/>
					<g>
						<rect x="737.7" y="347.5" fill="#F2A136" width="462.3" height="82.4"/>
						<rect x="737.7" y="347.5" fill="#DD7F0E" width="30.3" height="82.4"/>
					</g>
				</g>
				<g>
					<path fill="#9A4933" d="M422.3,184.4c0,0,47.1,40.8,59.4,46.2c0,0,14-1.6,36.1-8.3c17-5.2,31-9.6,44.3-17
						c3.9-2.2,7.4,0.9,8.8,4.9c2.3,6.5,0.6,13.6-12.6,23c-14.1,10-18.2,14.8-17.2,21.8c2.3,15.4,69,33.8,81.3,38.2
						c0,0,9.6,3.1,7.5,11.9c-2.5,10.3-13.3,6.9-13.3,6.9s-51.7-14.5-55.8-14.9c-5-0.5-5.8,2.9-5.8,2.9s-2.2,3.8,2,6.5
						c4.9,3.2,57.5,34.7,60.1,36.2c4.9,3,7.5,8.7,3.7,14.5c-3.7,5.6-10.7,5.7-14.5,3.5c-3.1-1.8-60.1-39.3-60.1-39.3s-3-2.5-6.4,1.3
						c-2.3,2.6-1.6,5.3,0,7.3c1.7,2.1,38.2,42.9,40.8,45.9c3.5,4,4.5,10.7-1.1,15c-6.1,4.7-12.4,1.3-16.4-3.6
						c-3.3-4-39.9-48.4-40.9-50c-2.5-3.9-9.9-2.2-9.4,3.1c0.4,4.3,9.3,34.6,10.1,37.3c1.1,3.9,0.9,9.6-5.7,12.1
						c-8.1,3.1-12.3-7.6-13.3-10.4c-2.2-6.2-16.7-40.3-17.7-43.2c-1.1-2.9-27.7-24.1-35.9-57.4c0,0-52-37.6-68.9-45.1L422.3,184.4z"
						/>
					<g>
						<polygon fill="#F9CF5A" points="433.3,286.9 76.1,-12.4 115.3,-73.2 486.2,223.7 						"/>
						
							<rect x="433" y="204.4" transform="matrix(0.7669 0.6418 -0.6418 0.7669 262.0821 -230.3463)" fill="#F4BE38" width="30.3" height="82.4"/>
					</g>
				</g>
				<g>
					<path fill="#F8A46D" d="M777.7,184.4c0,0-47.1,40.8-59.4,46.2c0,0-14-1.6-36.1-8.3c-17-5.2-31-9.6-44.3-17
						c-3.9-2.2-7.4,0.9-8.8,4.9c-2.3,6.5-0.6,13.6,12.6,23c14.1,10,18.2,14.8,17.2,21.8c-2.3,15.4-69,33.8-81.3,38.2
						c0,0-9.6,3.1-7.5,11.9c2.5,10.3,13.3,6.9,13.3,6.9s51.7-14.5,55.8-14.9c5-0.5,5.8,2.9,5.8,2.9s2.2,3.8-2,6.5
						c-4.9,3.2-57.5,34.7-60.1,36.2c-5,3-7.5,8.7-3.7,14.5c3.7,5.6,10.7,5.7,14.5,3.5c3.1-1.8,60.1-39.3,60.1-39.3s3-2.5,6.4,1.3
						c2.3,2.6,1.6,5.3,0,7.3c-1.7,2.1-38.2,42.9-40.8,45.9c-3.5,4-4.5,10.7,1.1,15c6.1,4.7,12.4,1.3,16.4-3.6
						c3.3-4,39.9-48.4,40.9-50c2.5-3.9,9.9-2.2,9.4,3.1c-0.4,4.3-9.3,34.6-10.1,37.3c-1.1,3.9-0.9,9.6,5.7,12.1
						c8.1,3.1,12.3-7.6,13.3-10.4c2.2-6.2,16.7-40.3,17.7-43.2c1.1-2.9,27.7-24.1,35.9-57.4c0,0,52-37.6,68.9-45.1L777.7,184.4z"/>
					<g>
						<polygon fill="#9FDB7F" points="766.7,286.9 1127.5,-10.9 1084.7,-73.2 713.8,223.7 						"/>
						
							<rect x="736.7" y="204.4" transform="matrix(-0.7669 0.6417 -0.6417 -0.7669 1486.1106 -48.5179)" fill="#76DD3A" width="30.3" height="82.4"/>
					</g>
				</g>
				<g>
					<path fill="#FCDBCF" d="M620.2,98.9c0,0-1,62.3,2.7,75.2c0,0,10.2,9.7,29.5,22.4c14.9,9.8,27.3,17.6,41.5,23
						c4.2,1.6,4.1,6.2,1.9,9.9c-3.5,5.9-10.1,9.2-25.7,5.1c-16.7-4.4-23-4.5-27.7,0.8c-10.4,11.6,18.4,74.6,22.8,86.9
						c0,0,3.7,9.4-4.3,13.3c-9.5,4.7-13.8-5.8-13.8-5.8s-22-49-24.3-52.3c-2.8-4.1-6-2.6-6-2.6s-4.3,0.8-3.7,5.7
						c0.7,5.8,10.3,66.4,10.8,69.4c0.9,5.7-1.9,11.3-8.8,12.1c-6.7,0.8-11.2-4.5-12-8.9c-0.6-3.5-8.4-71.3-8.4-71.3
						s-0.1-3.9-5.1-4.1c-3.4-0.1-5.1,2.1-5.6,4.7c-0.5,2.7-8.4,56.8-9,60.8c-0.8,5.2-5.3,10.3-12.3,8.8c-7.5-1.6-8.9-8.6-7.8-14.8
						c0.9-5.1,11.5-61.7,12.1-63.5c1.4-4.4-4.6-9-8.5-5.2c-3,3-20.5,29.3-22.1,31.6c-2.3,3.3-6.8,6.8-12.9,3.4
						c-7.6-4.2-2.1-14.3-0.5-16.9c3.4-5.7,20.2-38.6,21.7-41.3c1.5-2.7,0.7-36.7,21-64.4c0,0-4.5-64.1-9.6-81.8H620.2z"/>
					<g>
						<rect x="548.7" y="-88.8" fill="#F47E2F" width="82.4" height="261.9"/>
						<rect x="548.7" y="142.9" fill="#F7A872" width="82.4" height="30.3"/>
					</g>
				</g>
			</g>
		</g>
		<g>
			<g>
				<g>
					<polygon fill="#4FC6A7" points="960.5,497.1 593,497.1 591.3,497.1 223.8,497.1 257.8,564.2 223.8,631.4 591.3,631.4 
						593,631.4 960.5,631.4 926.4,564.2 					"/>
				</g>
			</g>
		</g>
	</g>
</g>
<g>
	<path fill="#F9F6EF" d="M328.4,549.1v6.6c0,8.1-3.9,12.5-11.8,12.5h-3.7V587h-7.9v-50.4h11.7C324.5,536.6,328.4,541,328.4,549.1z
		 M312.8,543.8v17.1h3.7c2.5,0,3.9-1.2,3.9-4.8v-7.6c0-3.6-1.4-4.8-3.9-4.8H312.8z"/>
	<path fill="#F9F6EF" d="M357.1,587h-8l-1.4-9.1H338l-1.4,9.1h-7.3l8.1-50.4H349L357.1,587z M339,571h7.6l-3.8-25.5L339,571z"/>
	<path fill="#F9F6EF" d="M377.3,587c-0.4-1.3-0.7-2.1-0.7-6.2v-7.9c0-4.7-1.6-6.4-5.2-6.4h-2.7V587h-7.9v-50.4h12
		c8.2,0,11.7,3.8,11.7,11.6v4c0,5.2-1.7,8.6-5.2,10.2c4,1.7,5.3,5.5,5.3,10.7v7.8c0,2.4,0.1,4.2,0.9,6.1H377.3z M368.7,543.8v15.5
		h3.1c3,0,4.8-1.3,4.8-5.3v-5c0-3.6-1.2-5.2-4-5.2H368.7z"/>
	<path fill="#F9F6EF" d="M387.4,536.6h24.5v7.2h-8.3V587h-7.9v-43.2h-8.3V536.6z"/>
	<path fill="#F9F6EF" d="M415.3,536.6h7.9V587h-7.9V536.6z"/>
	<path fill="#F9F6EF" d="M452,568.2v6.7c0,8.1-4,12.7-11.8,12.7c-7.8,0-11.8-4.6-11.8-12.7v-26.2c0-8.1,4-12.7,11.8-12.7
		c7.8,0,11.8,4.6,11.8,12.7v4.9h-7.5v-5.4c0-3.6-1.6-5-4.1-5c-2.5,0-4.1,1.4-4.1,5v27.2c0,3.6,1.6,4.9,4.1,4.9
		c2.5,0,4.1-1.3,4.1-4.9v-7.2H452z"/>
	<path fill="#F9F6EF" d="M456.8,536.6h7.9V587h-7.9V536.6z"/>
	<path fill="#F9F6EF" d="M494,549.1v6.6c0,8.1-3.9,12.5-11.8,12.5h-3.7V587h-7.9v-50.4h11.7C490.1,536.6,494,541,494,549.1z
		 M478.4,543.8v17.1h3.7c2.5,0,3.9-1.2,3.9-4.8v-7.6c0-3.6-1.4-4.8-3.9-4.8H478.4z"/>
	<path fill="#F9F6EF" d="M505.9,557.8h10.9v7.2h-10.9v14.8h13.7v7.2H498v-50.4h21.6v7.2h-13.7V557.8z"/>
	<path fill="#F9F6EF" d="M535.6,536.6h12.5c7.9,0,11.8,4.4,11.8,12.5v25.5c0,8.1-3.9,12.5-11.8,12.5h-12.5V536.6z M543.6,543.8v36
		h4.5c2.5,0,4-1.3,4-4.9v-26.2c0-3.6-1.5-4.9-4-4.9H543.6z"/>
	<path fill="#F9F6EF" d="M572.9,557.8h10.9v7.2h-10.9v14.8h13.7v7.2H565v-50.4h21.6v7.2h-13.7V557.8z"/>
	<path fill="#F9F6EF" d="M610.2,536.6v38.9c0,3.6,1.6,4.9,4.1,4.9c2.5,0,4.1-1.3,4.1-4.9v-38.9h7.5V575c0,8.1-4,12.7-11.8,12.7
		s-11.8-4.6-11.8-12.7v-38.4H610.2z"/>
	<path fill="#F9F6EF" d="M648.1,572.4l5.4-35.8h11V587H657v-36.1l-5.5,36.1h-7.5l-5.9-35.6V587h-6.9v-50.4h11L648.1,572.4z"/>
	<path fill="#F9F6EF" d="M695.9,587h-8l-1.4-9.1h-9.7l-1.4,9.1h-7.3l8.1-50.4h11.6L695.9,587z M677.8,571h7.6l-3.8-25.5L677.8,571z"
		/>
	<path fill="#F9F6EF" d="M727.3,587c-0.4-1.3-0.7-2.1-0.7-6.2v-7.9c0-4.7-1.6-6.4-5.2-6.4h-2.7V587h-7.9v-50.4h12
		c8.2,0,11.7,3.8,11.7,11.6v4c0,5.2-1.7,8.6-5.2,10.2c4,1.7,5.3,5.5,5.3,10.7v7.8c0,2.4,0.1,4.2,0.9,6.1H727.3z M718.7,543.8v15.5
		h3.1c3,0,4.8-1.3,4.8-5.3v-5c0-3.6-1.2-5.2-4-5.2H718.7z"/>
	<path fill="#F9F6EF" d="M747.6,557.8h10.9v7.2h-10.9v14.8h13.7v7.2h-21.6v-50.4h21.6v7.2h-13.7V557.8z"/>
	<path fill="#F9F6EF" d="M773.7,536.6v38.9c0,3.6,1.6,4.9,4.1,4.9c2.5,0,4.1-1.3,4.1-4.9v-38.9h7.5V575c0,8.1-4,12.7-11.8,12.7
		s-11.8-4.6-11.8-12.7v-38.4H773.7z"/>
	<path fill="#F9F6EF" d="M801.9,550.5V587h-7.1v-50.4h9.9l8.1,30.2v-30.2h7.1V587h-8.1L801.9,550.5z"/>
	<path fill="#F9F6EF" d="M825.6,536.6h7.9V587h-7.9V536.6z"/>
	<path fill="#F9F6EF" d="M864.9,587h-8l-1.4-9.1h-9.7l-1.4,9.1h-7.3l8.1-50.4h11.6L864.9,587z M857,526.4l3.8,2.7
		c-1.4,3.7-3.6,4.9-6.1,4.9c-3,0-4.3-1.8-6.5-1.8c-1.3,0-2.2,0.3-3.1,2.1l-3.8-2.7c1.4-3.7,3.6-4.9,6.1-4.9c3,0,4.3,1.8,6.5,1.8
		C855.2,528.5,856.1,528.2,857,526.4z M846.8,571h7.6l-3.8-25.5L846.8,571z"/>
	<path fill="#F9F6EF" d="M867.9,548.7c0-8.1,4.2-12.7,12-12.7c7.8,0,12,4.6,12,12.7v26.2c0,8.1-4.2,12.7-12,12.7
		c-7.8,0-12-4.6-12-12.7V548.7z M875.8,575.4c0,3.6,1.6,5,4.1,5c2.5,0,4.1-1.4,4.1-5v-27.2c0-3.6-1.6-5-4.1-5c-2.5,0-4.1,1.4-4.1,5
		V575.4z"/>
</g>
<g id="Layer_2">
	<g>
		<path fill="#4FC6A7" d="M229.7,712h-3v-50.4h4.3l15.1,42.6v-42.6h3V712h-3.7l-15.8-44.9V712z"/>
		<path fill="#4FC6A7" d="M254.6,673.9c0-7.3,3.4-12.7,11-12.7c7.8,0,11.2,5.4,11.2,12.7v25.8c0,7.3-3.4,12.7-11.2,12.7
			c-7.6,0-11-5.4-11-12.7V673.9z M257.9,699.9c0,5.5,2.2,9.5,7.7,9.5c5.6,0,7.8-4,7.8-9.5v-26.2c0-5.5-2.2-9.5-7.8-9.5
			c-5.5,0-7.7,4-7.7,9.5V699.9z"/>
		<path fill="#4FC6A7" d="M303.5,673.8v1.1h-3.2v-1.3c0-5.3-2-9.4-7.5-9.4c-5.5,0-7.5,4-7.5,9.3c0,12.2,18.2,12.5,18.2,26.4
			c0,7.3-3.2,12.6-10.9,12.6c-7.7,0-10.9-5.3-10.9-12.6v-2.6h3.2v2.8c0,5.4,2.1,9.3,7.6,9.3c5.5,0,7.6-3.9,7.6-9.3
			c0-12.1-18.2-12.3-18.2-26.4c0-7.6,3.3-12.5,10.7-12.5C300.4,661.2,303.5,666.5,303.5,673.8z"/>
		<path fill="#4FC6A7" d="M330.1,673.8v1.1h-3.2v-1.3c0-5.3-2-9.4-7.5-9.4c-5.5,0-7.5,4-7.5,9.3c0,12.2,18.2,12.5,18.2,26.4
			c0,7.3-3.2,12.6-10.9,12.6c-7.7,0-10.9-5.3-10.9-12.6v-2.6h3.2v2.8c0,5.4,2.1,9.3,7.6,9.3c5.5,0,7.6-3.9,7.6-9.3
			c0-12.1-18.2-12.3-18.2-26.4c0-7.6,3.3-12.5,10.7-12.5C327,661.2,330.1,666.5,330.1,673.8z"/>
		<path fill="#4FC6A7" d="M335.3,673.9c0-7.3,3.4-12.7,11-12.7c7.8,0,11.2,5.4,11.2,12.7v25.8c0,7.3-3.4,12.7-11.2,12.7
			c-7.6,0-11-5.4-11-12.7V673.9z M338.6,699.9c0,5.5,2.2,9.5,7.7,9.5c5.6,0,7.8-4,7.8-9.5v-26.2c0-5.5-2.2-9.5-7.8-9.5
			c-5.5,0-7.7,4-7.7,9.5V699.9z"/>
		<path fill="#4FC6A7" d="M384.2,673.8v1.1H381v-1.3c0-5.3-2-9.4-7.5-9.4c-5.5,0-7.5,4-7.5,9.3c0,12.2,18.2,12.5,18.2,26.4
			c0,7.3-3.2,12.6-10.9,12.6c-7.7,0-10.9-5.3-10.9-12.6v-2.6h3.2v2.8c0,5.4,2.1,9.3,7.6,9.3c5.5,0,7.6-3.9,7.6-9.3
			c0-12.1-18.2-12.3-18.2-26.4c0-7.6,3.3-12.5,10.7-12.5C381.1,661.2,384.2,666.5,384.2,673.8z"/>
		<path fill="#4FC6A7" d="M404,661.6V712h-3.3v-50.4H404z"/>
		<path fill="#4FC6A7" d="M420.3,661.6c7.7,0,10.8,4.2,10.8,11.4v4.4c0,5.9-2.3,9.3-7.3,10.4c5.2,1.2,7.3,4.8,7.3,10.3v7.8
			c0,2.1,0.1,4.4,1.2,6h-3.5c-0.9-1.5-1.1-3.3-1.1-6V698c0-6.7-3.7-8.6-9.4-8.6h-5.3V712h-3.3v-50.4H420.3z M418.4,686.4
			c5.9,0,9.4-1.7,9.4-8.4v-4.8c0-5.4-2.1-8.6-7.6-8.6h-7.1v21.8H418.4z"/>
		<path fill="#4FC6A7" d="M454.5,711.9h-3.3l-10.7-44.6V712h-3v-50.4h4.8l10.6,44.6l10.5-44.6h4.8V712H465v-44.8L454.5,711.9z"/>
		<path fill="#4FC6A7" d="M478.8,700.8l-2.5,11.2h-3l11-50.5h4.8l11.2,50.5H497l-2.5-11.2H478.8z M490,655.8c1.2-0.1,2-0.9,2.7-2.2
			l1.8,1.2c-0.9,2.1-2.3,3.4-4.2,3.4c-2.7,0.1-4.4-2.4-6.7-2.4c-1.4,0-2.3,0.8-3,2.2l-1.8-1.2c1-2.2,2.5-3.4,4.5-3.5
			C486,653.4,487.8,655.9,490,655.8z M479.3,698H494l-7.4-32.6L479.3,698z"/>
		<path fill="#4FC6A7" d="M505.1,673.9c0-7.3,3.4-12.7,11-12.7c7.8,0,11.2,5.4,11.2,12.7v25.8c0,7.3-3.4,12.7-11.2,12.7
			c-7.6,0-11-5.4-11-12.7V673.9z M508.4,699.9c0,5.5,2.2,9.5,7.7,9.5c5.6,0,7.8-4,7.8-9.5v-26.2c0-5.5-2.2-9.5-7.8-9.5
			c-5.5,0-7.7,4-7.7,9.5V699.9z"/>
		<path fill="#4FC6A7" d="M553.9,673.8v1.1h-3.2v-1.3c0-5.3-2-9.4-7.5-9.4c-5.5,0-7.5,4-7.5,9.3c0,12.2,18.2,12.5,18.2,26.4
			c0,7.3-3.2,12.6-10.9,12.6c-7.7,0-10.9-5.3-10.9-12.6v-2.6h3.2v2.8c0,5.4,2.1,9.3,7.6,9.3c5.5,0,7.6-3.9,7.6-9.3
			c0-12.1-18.2-12.3-18.2-26.4c0-7.6,3.3-12.5,10.7-12.5C550.8,661.2,553.9,666.5,553.9,673.8z"/>
		<path fill="#4FC6A7" d="M580.9,661.6c7.8,0,10.8,4.9,10.8,12.2v5.5c0,8-3.7,12-11.7,12h-6.3V712h-3.3v-50.4H580.9z M580.1,688.2
			c5.8,0,8.4-2.6,8.4-8.7v-5.9c0-5.5-1.9-9-7.5-9h-7.1v23.6H580.1z"/>
		<path fill="#4FC6A7" d="M607.2,661.6c7.7,0,10.8,4.2,10.8,11.4v4.4c0,5.9-2.3,9.3-7.3,10.4c5.2,1.2,7.3,4.8,7.3,10.3v7.8
			c0,2.1,0.1,4.4,1.2,6h-3.5c-0.9-1.5-1.1-3.3-1.1-6V698c0-6.7-3.7-8.6-9.4-8.6H600V712h-3.3v-50.4H607.2z M605.4,686.4
			c5.9,0,9.4-1.7,9.4-8.4v-4.8c0-5.4-2.1-8.6-7.6-8.6H600v21.8H605.4z"/>
		<path fill="#4FC6A7" d="M641.6,684.9v3h-13.8v21h16.6v3h-19.9v-50.4h19.9v3h-16.6v20.3H641.6z"/>
		<path fill="#4FC6A7" d="M671.3,673.9v4.2h-3.2v-4.4c0-5.4-2.1-9.5-7.6-9.5c-5.5,0-7.6,4.1-7.6,9.5v26.2c0,5.4,2.1,9.4,7.6,9.4
			c5.5,0,7.6-4,7.6-9.4v-6h3.2v5.8c0,7.3-3.2,12.7-10.9,12.7s-10.9-5.5-10.9-12.7v-25.8c0-7.3,3.2-12.7,10.9-12.7
			S671.3,666.6,671.3,673.9z"/>
		<path fill="#4FC6A7" d="M680,661.6V712h-3.3v-50.4H680z"/>
		<path fill="#4FC6A7" d="M707,673.8v1.1h-3.2v-1.3c0-5.3-2-9.4-7.5-9.4c-5.5,0-7.5,4-7.5,9.3c0,12.2,18.2,12.5,18.2,26.4
			c0,7.3-3.2,12.6-10.9,12.6c-7.7,0-10.9-5.3-10.9-12.6v-2.6h3.2v2.8c0,5.4,2.1,9.3,7.6,9.3c5.5,0,7.6-3.9,7.6-9.3
			c0-12.1-18.2-12.3-18.2-26.4c0-7.6,3.3-12.5,10.7-12.5C703.9,661.2,707,666.5,707,673.8z"/>
		<path fill="#4FC6A7" d="M717.2,700.8l-2.5,11.2h-3l11-50.5h4.8l11.2,50.5h-3.3l-2.5-11.2H717.2z M717.7,698h14.7l-7.4-32.6
			L717.7,698z"/>
		<path fill="#4FC6A7" d="M760.7,711.9h-3.3l-10.7-44.6V712h-3v-50.4h4.8l10.6,44.6l10.5-44.6h4.8V712h-3.2v-44.8L760.7,711.9z"/>
		<path fill="#4FC6A7" d="M812.6,673.8v1.1h-3.2v-1.3c0-5.3-2-9.4-7.5-9.4c-5.5,0-7.5,4-7.5,9.3c0,12.2,18.2,12.5,18.2,26.4
			c0,7.3-3.2,12.6-10.9,12.6c-7.7,0-10.9-5.3-10.9-12.6v-2.6h3.2v2.8c0,5.4,2.1,9.3,7.6,9.3c5.5,0,7.6-3.9,7.6-9.3
			c0-12.1-18.2-12.3-18.2-26.4c0-7.6,3.3-12.5,10.7-12.5C809.5,661.2,812.6,666.5,812.6,673.8z"/>
		<path fill="#4FC6A7" d="M835,684.9v3h-13.8v21h16.6v3H818v-50.4h19.9v3h-16.6v20.3H835z"/>
		<path fill="#4FC6A7" d="M860.2,711.9h-3.3l-10.7-44.6V712h-3v-50.4h4.8l10.6,44.6l10.5-44.6h4.8V712h-3.2v-44.8L860.2,711.9z"/>
		<path fill="#4FC6A7" d="M890,661.6c7.8,0,10.8,4.9,10.8,12.2v5.5c0,8-3.7,12-11.7,12h-6.3V712h-3.3v-50.4H890z M889.2,688.2
			c5.8,0,8.4-2.6,8.4-8.7v-5.9c0-5.5-1.9-9-7.5-9h-7.1v23.6H889.2z"/>
		<path fill="#4FC6A7" d="M916.3,661.6c7.7,0,10.8,4.2,10.8,11.4v4.4c0,5.9-2.3,9.3-7.3,10.4c5.2,1.2,7.3,4.8,7.3,10.3v7.8
			c0,2.1,0.1,4.4,1.2,6h-3.5c-0.9-1.5-1.1-3.3-1.1-6V698c0-6.7-3.7-8.6-9.4-8.6h-5.3V712h-3.3v-50.4H916.3z M914.4,686.4
			c5.9,0,9.4-1.7,9.4-8.4v-4.8c0-5.4-2.1-8.6-7.6-8.6h-7.1v21.8H914.4z"/>
		<path fill="#4FC6A7" d="M950.7,684.9v3h-13.8v21h16.6v3h-19.9v-50.4h19.9v3h-16.6v20.3H950.7z"/>
	</g>
</g>
</svg>
