<?xml version="1.0" encoding="utf-8"?>
<!-- Generator: Adobe Illustrator 18.1.1, SVG Export Plug-In . SVG Version: 6.00 Build 0)  -->
<svg version="1.1" id="Layer_1" xmlns="http://www.w3.org/2000/svg" xmlns:xlink="http://www.w3.org/1999/xlink" x="0px" y="0px"
	 viewBox="0 0 957 849" enable-background="new 0 0 957 849" xml:space="preserve">
<g>
	<g>
		<polygon fill="none" points="539.7,305.3 420.7,305.3 420.7,424.3 301.7,424.3 301.7,573 420.7,573 420.7,692 539.6,692 
			539.6,573 658.7,573 658.7,573 658.7,424.3 539.7,424.3 		"/>
	</g>
	<g>
		<path fill="none" d="M375.9,91.5c-27.3,0-51.6,24.3-51.6,51.6v43v0.2H473V91.5H375.9z"/>
		<path fill="none" d="M570.3,91.5H473v94.8h148.8v-43.2C621.8,115.8,597.5,91.5,570.3,91.5z"/>
		<path fill="#33515E" d="M570.3,91.5c27.1,0,51.5,24.3,51.5,51.6v43.2h59.5v-43.2c0-61.2-50-111.1-111-111.1H473v59.5H570.3z"/>
		<path fill="#2E3E57" d="M324.4,143.1c0-27.3,24.3-51.6,51.6-51.6H473V32h-97.1c-61,0-111.1,49.9-111.1,111.1v43h59.6V143.1z"/>
		<path fill="#ECECEC" d="M28,676.2v23.8C28,761,77.9,811,139.1,811H473V676.2H28z"/>
		<path fill="#FFFFFF" d="M473,811h334c61.1,0,111-50,111-111.1v-23.8H473V811z"/>
		<path fill="#ECECEC" d="M473,186.3H324.4v-0.2h-59.6v0.2H139.1C77.9,186.3,28,228.6,28,289.7v39.4h445V186.3z"/>
		<path fill="#FFFFFF" d="M807.1,186.3H681.3h-59.5H473v142.8h445v-39.4C918.1,228.6,868.2,186.3,807.1,186.3z"/>
		<polygon fill="#C33C2F" points="473,614.8 437.3,614.8 437.3,543.3 365.8,543.3 365.8,454 437.3,454 437.3,382.5 473,382.5 
			473,329.1 28,329.1 28,676.2 473,676.2 		"/>
		<polygon fill="#EF4540" points="473,382.5 508.8,382.5 508.8,454 580.3,454 580.3,543.3 580.3,543.3 508.8,543.3 508.8,614.8 
			473,614.8 473,676.2 918.1,676.2 918.1,329.1 473,329.1 		"/>
		<polygon fill="#ECECEC" points="437.3,454 365.8,454 365.8,543.3 437.3,543.3 437.3,614.8 473,614.8 473,382.5 437.3,382.5 		"/>
		<polygon fill="#FFFFFF" points="508.8,614.8 508.8,543.3 580.3,543.3 580.3,543.3 580.3,454 508.8,454 508.8,382.5 473,382.5 
			473,614.8 		"/>
	</g>
</g>
</svg>
