<?xml version="1.0" encoding="utf-8"?>
<!-- Generator: Adobe Illustrator 18.1.1, SVG Export Plug-In . SVG Version: 6.00 Build 0)  -->
<svg version="1.1" id="Layer_1" xmlns="http://www.w3.org/2000/svg" xmlns:xlink="http://www.w3.org/1999/xlink" x="0px" y="0px"
	 viewBox="0 90 612 612" enable-background="new 0 90 612 612" xml:space="preserve">
<g id="shirt-star">
	<g>
		<polygon fill="#9DD2D8" points="612,396 579.2,432 601.6,475.2 560.7,501.5 571,549 524.6,563.8 522.4,612.4 473.7,614.6 459,661 
			411.5,650.7 385.2,691.7 342,669.2 306,702 270,669.2 226.8,691.7 200.5,650.7 152.9,661 138.2,614.6 89.6,612.4 87.4,563.7 
			41,549 51.3,501.5 10.3,475.2 32.8,432 0,396 32.8,360 10.3,316.8 51.3,290.5 41,243 87.4,228.3 89.6,179.6 138.3,177.4 153,131 
			200.5,141.3 226.8,100.4 270,122.8 306,90 342,122.8 385.2,100.4 411.5,141.4 459,131 473.7,177.4 522.4,179.6 524.6,228.3 
			571,243 560.7,290.5 601.6,316.8 579.2,360 		"/>
	</g>
</g>
<g id="Layer_1_1_">
</g>
<g>
	<g>
		<rect x="239.3" y="272.2" fill="#22364B" width="132.8" height="254.5"/>
		<path fill="#22364B" d="M408.1,272.2h9.6v254.5h-9.6v-9.4c0-3.8-3.1-6.8-6.8-6.8h-13.6c-3.8,0-6.8,3.1-6.8,6.8v9.4h-9.6V272.2h9.6
			v9.4c0,3.8,3.1,6.8,6.8,6.8h13.6c3.8,0,6.8-3.1,6.8-6.8V272.2z M401.3,491.9c3.8,0,6.8-3.1,6.8-6.8v-18.7c0-3.8-3.1-6.8-6.8-6.8
			h-13.6c-3.8,0-6.8,3.1-6.8,6.8v18.7c0,3.8,3.1,6.8,6.8,6.8H401.3z M401.3,441c3.8,0,6.8-3.1,6.8-6.8v-18.7c0-3.8-3.1-6.8-6.8-6.8
			h-13.6c-3.8,0-6.8,3.1-6.8,6.8v18.7c0,3.8,3.1,6.8,6.8,6.8H401.3z M401.3,390.2c3.8,0,6.8-3.1,6.8-6.8v-18.7
			c0-3.8-3.1-6.8-6.8-6.8h-13.6c-3.8,0-6.8,3.1-6.8,6.8v18.7c0,3.8,3.1,6.8,6.8,6.8H401.3z M401.3,339.3c3.8,0,6.8-3.1,6.8-6.8
			v-18.7c0-3.8-3.1-6.8-6.8-6.8h-13.6c-3.8,0-6.8,3.1-6.8,6.8v18.7c0,3.8,3.1,6.8,6.8,6.8H401.3z"/>
		<path fill="#22364B" d="M230.4,272.2h9.6v254.5h-9.6v-9.4c0-3.8-3.1-6.8-6.8-6.8H210c-3.8,0-6.8,3.1-6.8,6.8v9.4h-9.6V272.2h9.6
			v9.4c0,3.8,3.1,6.8,6.8,6.8h13.6c3.8,0,6.8-3.1,6.8-6.8V272.2z M223.7,491.9c3.8,0,6.8-3.1,6.8-6.8v-18.7c0-3.8-3.1-6.8-6.8-6.8
			h-13.6c-3.8,0-6.8,3.1-6.8,6.8v18.7c0,3.8,3.1,6.8,6.8,6.8H223.7z M223.7,441c3.8,0,6.8-3.1,6.8-6.8v-18.7c0-3.8-3.1-6.8-6.8-6.8
			h-13.6c-3.8,0-6.8,3.1-6.8,6.8v18.7c0,3.8,3.1,6.8,6.8,6.8H223.7z M223.7,390.2c3.8,0,6.8-3.1,6.8-6.8v-18.7
			c0-3.8-3.1-6.8-6.8-6.8h-13.6c-3.8,0-6.8,3.1-6.8,6.8v18.7c0,3.8,3.1,6.8,6.8,6.8H223.7z M223.7,339.3c3.8,0,6.8-3.1,6.8-6.8
			v-18.7c0-3.8-3.1-6.8-6.8-6.8h-13.6c-3.8,0-6.8,3.1-6.8,6.8v18.7c0,3.8,3.1,6.8,6.8,6.8H223.7z"/>
		<path fill="#868686" d="M371.4,343.4c0-6.9-5.6-12.4-12.4-12.4H252.4c-6.9,0-12.4,5.6-12.4,12.4v112.1c0,6.9,5.6,12.4,12.4,12.4
			h106.5c6.9,0,12.4-5.6,12.4-12.4V343.4H371.4z"/>
		<path fill="#868686" d="M372.1,272.2v34.4c0,6.9-5.6,12.4-12.5,12.4H252.5c-6.9,0-12.5-5.6-12.5-12.4v-34.4H372.1z"/>
		<path fill="#868686" d="M372.1,526.7v-34.4c0-6.9-5.6-12.4-12.5-12.4H252.5c-6.9,0-12.5,5.6-12.5,12.4v34.4H372.1z"/>
	</g>
</g>
</svg>
