<?xml version="1.0" encoding="utf-8"?>
<!-- Generator: Adobe Illustrator 18.1.1, SVG Export Plug-In . SVG Version: 6.00 Build 0)  -->
<svg version="1.1" id="Layer_1" xmlns="http://www.w3.org/2000/svg" xmlns:xlink="http://www.w3.org/1999/xlink" x="0px" y="0px"
	 viewBox="0 70.7 612 631.3" enable-background="new 0 70.7 612 631.3" xml:space="preserve">
<g id="shirt-star">
	<g>
		<polygon fill="#9DD2D8" points="612,396 579.2,432 601.6,475.2 560.7,501.5 571,549 524.6,563.8 522.4,612.4 473.7,614.6 459,661 
			411.5,650.7 385.2,691.7 342,669.2 306,702 270,669.2 226.8,691.7 200.5,650.7 152.9,661 138.2,614.6 89.6,612.4 87.4,563.7 
			41,549 51.3,501.5 10.3,475.2 32.8,432 0,396 32.8,360 10.3,316.8 51.3,290.5 41,243 87.4,228.3 89.6,179.6 138.3,177.4 153,131 
			200.5,141.3 226.8,100.4 270,122.8 306,90 342,122.8 385.2,100.4 411.5,141.4 459,131 473.7,177.4 522.4,179.6 524.6,228.3 
			571,243 560.7,290.5 601.6,316.8 579.2,360 		"/>
	</g>
</g>
<g id="Layer_1_1_">
</g>
<g id="SANTA_CLAUS_1_">
	<path fill="#F1A9A0" d="M325,375.6c0.1,0,0.3,0.1,0.4,0.1c0.2,0.1,0.4,0.1,0.7,0.2c1.3,0.4,2.7,0.8,4.2,1.2
		c6.4-7.1,15.1-11.8,24.4-13.4c-4.7-4.7-7.6-11.2-7.6-18.3c0-24.3-23.8-44-53.1-44c-29.3,0-53.1,19.7-53.1,44c0,7-2.8,13.3-7.3,17.9
		c10.3,1.2,19.8,6.1,26.8,13.8c1.5-0.5,3-0.9,4.6-1.4c0.2,0,0,0-0.3,0.1c0.3-0.1,0.6-0.3,1-0.4c2.4-0.6,4.8-1.2,7.3-1.6
		c-0.4-1.7-0.6-3.4-0.6-5.2c0-12.7,10.4-23.1,23.1-23.1c12.7,0,23.1,10.4,23.1,23.1c0,1.8-0.3,3.5-0.6,5.2
		C320.2,374.4,322.6,374.9,325,375.6z M267.2,346.3c-5.2,0-9.4-4.2-9.4-9.4c0-5.2,4.2-9.4,9.4-9.4c5.2,0,9.4,4.2,9.4,9.4
		C276.6,342.1,272.4,346.3,267.2,346.3z M314.1,336.9c0-5.2,4.2-9.4,9.4-9.4s9.4,4.2,9.4,9.4c0,5.2-4.2,9.4-9.4,9.4
		S314.1,342.1,314.1,336.9z"/>
	<path fill="#FFFFFF" d="M228.4,345.5c0-31.2,29.4-56.5,65.6-56.5s65.6,25.4,65.6,56.5c0,7.4,6,13.4,13.4,13.4
		c7.4,0,13.4-6,13.4-13.4c0-42.6-41.5-77.3-92.4-77.3s-92.4,34.7-92.4,77.3c0,7.4,6,13.4,13.4,13.4S228.4,352.9,228.4,345.5z"/>
	<path fill="#D64541" d="M398.5,349.2c1.4-0.3,2.9-0.5,4.4-0.5c1.4-4.2,2.1-8.4,2.1-12.6c0-17.7-10.7-33.6-28.2-45.6
		c13.8,15.2,22.1,34.3,22.1,55C398.9,346.8,398.7,348,398.5,349.2z"/>
	<circle fill="#D64541" cx="295.3" cy="368.8" r="10.6"/>
	<path fill="#FFFFFF" d="M392.2,405.9c0-16.7-13.6-30.3-30.3-30.3c-9.7,0-18.8,4.7-24.5,12.5c-1.6,2.3-4.6,3.2-7.2,2.2
		c-2.5-0.9-5.1-1.8-7.7-2.5c-0.4-0.1-0.6-0.2-0.9-0.3c-2.3-0.6-4.6-1.1-7-1.5c-0.3,0-0.5-0.1-0.8-0.2c-0.6-0.1-1-0.2-1.3-0.3
		c-0.4-0.1-0.8-0.1-1.2-0.2c-4.2,4-9.7,6.4-15.9,6.4c-6.2,0-11.7-2.5-15.9-6.4c-0.6,0.1-1.2,0.1-1.9,0.3c0.3-0.1-0.2,0.1-0.5,0.1
		c-0.3,0.1-0.7,0.2-1,0.2c-2.4,0.4-4.8,0.9-7.1,1.6c-0.2,0.1-0.5,0.1-0.6,0.2c-2.8,0.8-5.3,1.6-7.9,2.5c-2.6,1-5.6,0.1-7.2-2.2
		c-5.7-7.9-14.8-12.6-24.5-12.6c-16.7,0-30.3,13.6-30.3,30.3c0,5,1.2,9.9,3.5,14.2c1,1.8,1,4,0,5.9c-2.4,4.5-3.6,9.3-3.6,14.3
		c0,11.9,7,22.7,17.9,27.6c2.3,1,3.8,3.4,3.7,5.9l-6.3,0.7l6.3,0.1c0,16.7,13.6,30.3,30.3,30.3c5,0,10-1.2,14.2-3.6
		c2-1.1,4.4-1,6.3,0.2c0.4,0.3,0.9,0.7,1.3,1.1l0.6,0.6c0.8,0.9,1.5,1.7,2.3,2.3c0.5,0.4,0.8,0.6,1,0.9l0.3,0.2
		c0.6,0.5,1.2,1,1.9,1.4l0.9,0.6c1.1,0.7,2.2,1.4,3.4,1.9c0.3,0.1,0.4,0.1,0.6,0.3c0.9,0.4,1.9,0.8,2.9,1.1l0.7,0.2l-1.1,6.2l1.7-6
		c1,0.3,1.8,0.4,2.8,0.6c0.6,0.1,0.9,0.2,1.2,0.2c2.7,0.4,5.5,0.4,8.2,0c0.3,0,0.5-0.1,0.8-0.1c1.3-0.2,2.2-0.4,3.1-0.7l2.5,5.8
		l-1.8-6l0.9-0.3c0.8-0.3,1.8-0.6,2.7-1.1c0.3-0.1,0.5-0.2,0.8-0.3c1-0.5,2.1-1.1,3.2-1.8l0.7-0.5c0.8-0.5,1.4-1,2.1-1.6
		c0.1-0.1,0.5-0.4,0.9-0.7c1.2-1,1.9-1.8,2.6-2.6c0.1-0.1,0.4-0.4,0.6-0.6c0.4-0.4,0.9-0.8,1.5-1.2c1.9-1.2,4.3-1.3,6.3-0.2
		c4.3,2.3,9.2,3.6,14.2,3.6c16.7,0,30.3-13.6,30.3-30.3c0-0.2-0.1-0.5-0.1-0.8c-0.1-2.5,1.4-4.9,3.7-5.9
		c10.9-4.9,17.9-15.8,17.9-27.6c0-5.1-1.2-9.9-3.6-14.2c-1-1.9-1-4.1,0-6C390.9,415.8,392.2,410.9,392.2,405.9z M328.1,414.1
		c-2.5,0.3-5.1,0.4-7.8,0.4c-0.9,0-1.8-0.1-2.8-0.1c-2,6.9-10.7,11.6-22.2,11.6s-20.3-4.7-22.2-11.6c-0.9,0-1.8,0.1-2.8,0.1
		c-2.7,0-5.3-0.1-7.8-0.4c-3.4-0.4-5.9-3.4-5.6-6.9c0.4-3.4,3.4-5.8,6.9-5.6c10,1,21.6-0.6,28.7-4.2c1.8-0.9,3.9-0.9,5.7,0
		c7.1,3.6,18.7,5.2,28.7,4.2c3.5-0.3,6.5,2.1,6.9,5.6C334.1,410.7,331.6,413.7,328.1,414.1z"/>
	<circle fill="#FFFFFF" cx="403" cy="371.9" r="10.6"/>
	<path fill="#D64541" d="M288,412.3c1.7,0.6,4.1,1.2,7.3,1.2s5.6-0.5,7.3-1.2c-2.6-0.7-5.1-1.4-7.3-2.4
		C293,410.9,290.6,411.6,288,412.3z"/>
	<path fill="#26251D" d="M276.6,336.9c0,5.2-4.2,9.4-9.4,9.4c-5.2,0-9.4-4.2-9.4-9.4c0-5.2,4.2-9.4,9.4-9.4
		C272.4,327.5,276.6,331.7,276.6,336.9z M332.8,336.9c0-5.2-4.2-9.4-9.4-9.4s-9.4,4.2-9.4,9.4c0,5.2,4.2,9.4,9.4,9.4
		S332.8,342.1,332.8,336.9z M333.7,407.2c0.4,3.4-2.1,6.5-5.6,6.9c-2.5,0.3-5.1,0.4-7.8,0.4c-0.9,0-1.8-0.1-2.8-0.1
		c-2,6.9-10.7,11.6-22.2,11.6c-11.5,0-20.3-4.7-22.2-11.6c-0.9,0-1.8,0.1-2.8,0.1c-2.7,0-5.3-0.1-7.8-0.4c-3.4-0.4-5.9-3.4-5.6-6.9
		c0.4-3.4,3.4-5.8,6.9-5.6c10,1,21.6-0.6,28.7-4.2c1.8-0.9,3.9-0.9,5.7,0c7.1,3.6,18.7,5.2,28.7,4.2
		C330.3,401.3,333.4,403.8,333.7,407.2z M302.6,412.3c-2.6-0.7-5.1-1.4-7.3-2.4c-2.3,0.9-4.8,1.7-7.3,2.4c1.7,0.6,4.1,1.2,7.3,1.2
		C298.5,413.5,300.9,412.9,302.6,412.3z M403.2,394.9c0.9,3.5,1.5,7.2,1.5,11c0,6-1.2,11.8-3.6,17.1c2.4,5.4,3.6,11.3,3.6,17.2
		c0,15.4-8.3,29.5-21.5,37.1c-1.4,22.3-20,40-42.7,40c-5.5,0-10.9-1-15.9-3c-0.3,0.2-0.5,0.5-0.8,0.7c0,0,0,0,0,0
		c0,0-0.3,0.3-0.6,0.5c-0.2,0.2-0.4,0.3-0.6,0.5c-1.4,1.1-2.3,1.8-3.2,2.4c0,0-0.8,0.6-0.8,0.6c-1.9,1.2-3.5,2.1-5.1,2.9
		c-0.1,0.1-0.3,0.1-0.5,0.2c-1.3,0.6-2.7,1.1-4.2,1.6c-0.1,0-0.5,0.2-0.7,0.2c-0.8,0.3-1.3,0.4-1.7,0.5c-0.9,0.3-2.3,0.5-3.6,0.8
		c-0.3,0.1-0.9,0.2-1.4,0.3c-2.1,0.3-4,0.4-6,0.4s-3.9-0.1-5.8-0.4c-0.8-0.1-1.4-0.2-2-0.4c-1-0.2-2.3-0.4-3.7-0.8
		c0,0-0.5-0.1-0.9-0.3c-0.1,0-0.7-0.2-0.8-0.2c-1.6-0.6-3.1-1.1-4.4-1.7c-0.2-0.1-0.3-0.1-0.4-0.2c-1.8-0.8-3.3-1.7-4.9-2.7
		c-0.2-0.1-0.7-0.5-0.9-0.6c-1.2-0.8-2.1-1.5-3-2.2c-0.3-0.2-1-0.8-1.2-1c-0.2-0.2-0.6-0.4-0.9-0.8c-0.1-0.1-0.3-0.2-0.4-0.3
		c-5,2-10.4,3-15.9,3c-22.6,0-41.2-17.7-42.7-40c-13.2-7.6-21.6-21.8-21.6-37.1c0-5.9,1.2-11.8,3.6-17.2c-2.4-5.4-3.6-11.2-3.6-17.1
		c0-15.2,8-28.6,20.1-36.2c-9.9-3.7-16.9-13.1-16.9-24.2c0-49.5,47.1-89.8,104.9-89.8c70.4,0,123.5,34.6,123.5,80.5
		c0,5.4-0.9,10.8-2.6,16.1c6.6,4.1,11.1,11.3,11.1,19.6C426.1,384.5,415.8,394.8,403.2,394.9z M376.8,290.5
		c13.8,15.2,22.1,34.3,22.1,55c0,1.3-0.2,2.5-0.4,3.8c1.4-0.3,2.9-0.5,4.4-0.5c1.4-4.2,2.1-8.4,2.1-12.6
		C405,318.4,394.4,302.5,376.8,290.5z M215,358.9c7.4,0,13.4-6,13.4-13.4c0-31.2,29.4-56.5,65.6-56.5s65.6,25.4,65.6,56.5
		c0,7.4,6,13.4,13.4,13.4c7.4,0,13.4-6,13.4-13.4c0-42.6-41.5-77.3-92.4-77.3s-92.4,34.7-92.4,77.3
		C201.6,352.9,207.6,358.9,215,358.9z M318.4,368.8c0,1.8-0.3,3.5-0.6,5.2c2.4,0.5,4.9,1,7.3,1.6c0.1,0,0.3,0.1,0.4,0.1
		c0.2,0.1,0.4,0.1,0.7,0.2c1.3,0.4,2.7,0.8,4.2,1.2c6.4-7.1,15.1-11.8,24.4-13.4c-4.7-4.7-7.6-11.2-7.6-18.3c0-24.3-23.8-44-53.1-44
		s-53.1,19.7-53.1,44c0,7-2.8,13.3-7.3,17.9c10.3,1.2,19.8,6.1,26.8,13.8c1.5-0.5,3-0.9,4.6-1.4c0.2,0,0,0-0.3,0.2
		c0.3-0.1,0.6-0.3,1-0.4c2.4-0.6,4.8-1.2,7.3-1.6c-0.4-1.7-0.6-3.4-0.6-5.2c0-12.7,10.4-23.1,23.1-23.1S318.4,356,318.4,368.8z
		 M295.3,358.2c-5.8,0-10.6,4.8-10.6,10.6s4.8,10.6,10.6,10.6c5.8,0,10.6-4.8,10.6-10.6S301.1,358.2,295.3,358.2z M388.6,420
		c2.3-4.2,3.6-9.1,3.6-14.1c0-16.7-13.6-30.3-30.3-30.3c-9.7,0-18.8,4.7-24.5,12.5c-1.6,2.3-4.6,3.2-7.2,2.2
		c-2.5-0.9-5.1-1.8-7.7-2.5c-0.4-0.1-0.6-0.2-0.9-0.3c-2.3-0.6-4.6-1.1-7-1.5c-0.3,0-0.5-0.1-0.8-0.2c-0.6-0.1-1-0.2-1.3-0.3
		c-0.4-0.1-0.8-0.1-1.2-0.2c-4.1,4-9.7,6.4-15.9,6.4c-6.2,0-11.7-2.5-15.9-6.4c-0.6,0.1-1.2,0.1-1.9,0.3c0.3-0.1-0.2,0.1-0.5,0.1
		c-0.3,0.1-0.7,0.2-1,0.2c-2.4,0.4-4.8,0.9-7.1,1.6c-0.2,0.1-0.5,0.1-0.6,0.2c-2.8,0.8-5.3,1.6-7.9,2.5c-2.6,1-5.6,0.1-7.2-2.2
		c-5.7-7.9-14.8-12.6-24.5-12.6c-16.7,0-30.3,13.6-30.3,30.3c0,5,1.2,9.9,3.5,14.2c1,1.8,1,4,0,5.9c-2.4,4.5-3.6,9.3-3.6,14.3
		c0,11.9,7,22.7,17.9,27.6c2.3,1,3.8,3.4,3.7,5.9l-6.3,0.7l6.3,0.1c0,16.7,13.6,30.3,30.3,30.3c5,0,10-1.2,14.2-3.6
		c2-1.1,4.4-1,6.3,0.2c0.4,0.3,0.9,0.7,1.3,1.1l0.6,0.6c0.8,0.9,1.5,1.7,2.3,2.3c0.4,0.4,0.8,0.6,1,0.9l0.3,0.2
		c0.6,0.5,1.2,1,1.9,1.4l0.9,0.6c1.1,0.7,2.2,1.4,3.4,1.9c0.3,0.1,0.4,0.1,0.6,0.3c0.9,0.4,1.9,0.8,2.9,1.1l0.7,0.2l-1.1,6.2l1.7-6
		c0.9,0.3,1.8,0.4,2.8,0.6c0.6,0.1,0.9,0.2,1.2,0.2c2.7,0.4,5.5,0.4,8.1,0c0.3,0,0.5-0.1,0.8-0.1c1.3-0.2,2.2-0.4,3.1-0.7l2.5,5.8
		l-1.8-6l0.9-0.3c0.8-0.3,1.8-0.6,2.7-1.1c0.3-0.1,0.5-0.2,0.8-0.3c1-0.5,2.1-1.1,3.2-1.8l0.7-0.5c0.8-0.5,1.5-1,2.1-1.6
		c0.1-0.1,0.5-0.4,0.9-0.7c1.2-1,1.9-1.8,2.6-2.6c0.1-0.1,0.4-0.4,0.6-0.6c0.4-0.4,0.9-0.8,1.5-1.2c1.9-1.2,4.3-1.3,6.3-0.2
		c4.3,2.3,9.2,3.6,14.2,3.6c16.7,0,30.3-13.6,30.3-30.3c0-0.2-0.1-0.5-0.1-0.8c-0.1-2.5,1.4-4.9,3.7-5.9
		c10.9-4.9,17.9-15.8,17.9-27.6c0-5.1-1.2-9.9-3.6-14.2C387.6,424.1,387.6,421.9,388.6,420z M413.6,371.9c0-5.8-4.8-10.6-10.6-10.6
		s-10.6,4.8-10.6,10.6c0,5.8,4.8,10.6,10.6,10.6S413.6,377.7,413.6,371.9z"/>
</g>
</svg>
