<?xml version="1.0" encoding="utf-8"?>
<!-- Generator: Adobe Illustrator 18.1.1, SVG Export Plug-In . SVG Version: 6.00 Build 0)  -->
<svg version="1.1" xmlns="http://www.w3.org/2000/svg" xmlns:xlink="http://www.w3.org/1999/xlink" x="0px" y="0px"
	 viewBox="0 0 121 117" enable-background="new 0 0 121 117" xml:space="preserve">
<g id="_x39_">
	<g>
		<polygon display="none" fill-rule="evenodd" clip-rule="evenodd" fill="#EFBB86" points="650.9,155.9 658.2,146.7 650,141 
			650.1,155.4 650.9,155.9 		"/>
		<polygon display="none" fill-rule="evenodd" clip-rule="evenodd" fill="#F2C89D" points="658.2,146.7 650.9,155.9 658.4,161.1 
			665.8,151.8 658.2,146.7 		"/>
		<polygon display="none" fill-rule="evenodd" clip-rule="evenodd" fill="#2B2B2B" points="652.5,163.8 655.8,159.3 653.5,157.8 
			650.2,162.4 650.2,164.6 652.5,163.8 		"/>
		<polygon display="none" fill-rule="evenodd" clip-rule="evenodd" fill="#1A1A1A" points="650.1,156.9 650.9,155.9 650.1,155.4 
			650.1,156.9 		"/>
		<polygon display="none" fill-rule="evenodd" clip-rule="evenodd" fill="#1A1A1A" points="650.2,162.4 653.6,157.8 650.9,155.9 
			650.1,156.9 650.2,162.4 		"/>
		<path display="none" fill-rule="evenodd" clip-rule="evenodd" fill="#DD4F39" d="M114.6,71.6h0.8c0,0.7,3.1,1.2,4.2,0
			c1.5-1.7,4.2,0,4.2,0v4.8c0,0-2.2-1.8-4.2,0c-1.6,1.4-3.4,0.6-4.2,0.2c0,0.7,0,2.6,0,3.9h-0.8C114.6,77.7,114.6,74.7,114.6,71.6
			L114.6,71.6z"/>
	</g>
	<path fill-rule="evenodd" clip-rule="evenodd" fill="#FFC01C" d="M85.3,10.9L29.5,66.2l7.5,6.9l55.7-55.3c0.3-0.3,0.4-0.6,0.4-1
		l-6.7-6.3C86,10.5,85.6,10.6,85.3,10.9L85.3,10.9z"/>
	<path fill-rule="evenodd" clip-rule="evenodd" fill="#E4A936" d="M109.7,33.5L53.9,88.8l5.5,5.1l52.9-52.4c1.6-1.6,0.7-5.2-2.1-8.7
		l-0.1-0.1C110,33.1,109.9,33.3,109.7,33.5L109.7,33.5z"/>
	<path fill-rule="evenodd" clip-rule="evenodd" fill="#E4A936" d="M29.6,66.3l55.8-55.1c0.3-0.3,0.6-0.7,1-0.7l-0.3-0.3
		c-3.9-3.2-8.2-4.4-9.9-2.7L23.1,60.2L29.6,66.3L29.6,66.3z"/>
	<path fill-rule="evenodd" clip-rule="evenodd" fill="#FFC01C" d="M102.2,26.5L46.4,81.8l7.8,7.2L110,33.7c0.2-0.2,0.1-0.6,0.1-0.9
		l-7-6.6C102.7,26.2,102.4,26.3,102.2,26.5L102.2,26.5z"/>
	<path fill-rule="evenodd" clip-rule="evenodd" fill="#E4A936" d="M46.4,81.8l55.8-55.1c0.2-0.2,0.6-0.5,0.9-0.6l-9.9-9.4
		c0,0.4-0.4,0.5-0.6,0.8L36.8,72.9L46.4,81.8L46.4,81.8z"/>
	<polygon fill-rule="evenodd" clip-rule="evenodd" fill="#EFBB86" points="18.3,89.1 34.2,74.7 21.1,62.2 17.1,88 18.3,89.1 	"/>
	<polygon fill-rule="evenodd" clip-rule="evenodd" fill="#EFBB86" points="46.2,86.2 30.3,100.6 31,101.3 56.9,96.4 46.2,86.2 	"/>
	<polygon fill-rule="evenodd" clip-rule="evenodd" fill="#F2C89D" points="34.2,74.7 18.3,89.1 30.3,100.6 46.2,86.2 34.2,74.7 	"/>
	<polygon fill-rule="evenodd" clip-rule="evenodd" fill="#1A1A1A" points="25.9,96.4 18.9,103.6 31,101.3 30.3,100.6 25.9,96.4 	"/>
	<polygon fill-rule="evenodd" clip-rule="evenodd" fill="#2B2B2B" points="18.9,103.6 26.1,96.6 22.6,93.2 15.2,100.4 14.6,104.5 
		18.9,103.6 	"/>
	<polygon fill-rule="evenodd" clip-rule="evenodd" fill="#1A1A1A" points="16.7,90.6 18.3,89.2 17.1,88 16.7,90.6 	"/>
	<polygon fill-rule="evenodd" clip-rule="evenodd" fill="#1A1A1A" points="15.2,100.5 22.6,93.3 18.3,89.1 16.7,90.6 15.2,100.5 	
		"/>
	<path fill-rule="evenodd" clip-rule="evenodd" fill="#2B2B2B" d="M107.5,103.9H35.1l-20.7,3.6l93,1.3c0.6,0,1-0.4,1-0.9v-3.2
		C108.5,104.3,108,103.9,107.5,103.9L107.5,103.9z"/>
</g>
<g id="Layer_1">
</g>
</svg>
