<?xml version="1.0" encoding="utf-8"?>
<!-- Generator: Adobe Illustrator 18.1.1, SVG Export Plug-In . SVG Version: 6.00 Build 0)  -->
<svg version="1.1" id="Layer_1" xmlns="http://www.w3.org/2000/svg" xmlns:xlink="http://www.w3.org/1999/xlink" x="0px" y="0px"
	 viewBox="0 90 612 612" enable-background="new 0 90 612 612" xml:space="preserve">
<g id="shirt-star">
	<g>
		<polygon fill="#9DD2D8" points="612,396 579.2,432 601.6,475.2 560.7,501.5 571,549 524.6,563.8 522.4,612.4 473.7,614.6 459,661 
			411.5,650.7 385.2,691.7 342,669.2 306,702 270,669.2 226.8,691.7 200.5,650.7 152.9,661 138.2,614.6 89.6,612.4 87.4,563.7 
			41,549 51.3,501.5 10.3,475.2 32.8,432 0,396 32.8,360 10.3,316.8 51.3,290.5 41,243 87.4,228.3 89.6,179.6 138.3,177.4 153,131 
			200.5,141.3 226.8,100.4 270,122.8 306,90 342,122.8 385.2,100.4 411.5,141.4 459,131 473.7,177.4 522.4,179.6 524.6,228.3 
			571,243 560.7,290.5 601.6,316.8 579.2,360 		"/>
		<g id="_x31_7">
			<path fill="#484B4D" d="M470.9,343.3c-28.3-52.3-72.8-70.5-94.7-76.5c-0.3-0.1-0.7-0.2-1-0.3c-0.5-0.1-1.1-0.3-1.7-0.4
				c-2-0.5-4-0.2-5.7,1c-0.9,0.6-1.7,1.4-2.2,2.4c-23.8,11.5-45.7,15.4-64.4,15.4c-18.8,0-34.5-3.8-45.3-7.7
				c-5.4-1.9-9.7-3.8-12.5-5.2c-0.1-0.1-0.3-0.1-0.4-0.2c-0.6-1.4-1.4-2.7-2.7-3.5c-1.7-1.1-3.9-1.4-5.9-0.9
				c-25.9,7.4-48.7,24.2-65.4,39.2c-16.6,14.9-26.9,28.1-27.1,28.3c-2.2,2.9-2,6.9,0.5,9.5l41.1,43.1c2.6,2.7,6.8,3,9.8,0.7
				l10.7-8.5v139.2c0,1.9,0.8,3.8,2.1,5.2c1.4,1.4,3.2,2.1,5.2,2.1h181.4c1.9,0,3.8-0.8,5.2-2.1c1.4-1.4,2.1-3.2,2.1-5.2v-138
				l12.2,11.9c2.7,2.7,7,2.8,9.9,0.3l47.2-40.9C471.8,350.1,472.5,346.3,470.9,343.3z"/>
			<path fill="#F4F8F8" d="M417.6,377.8l-19.8-19.4c-2.1-2.1-5.2-2.7-7.9-1.5c-2.7,1.1-4.5,3.8-4.5,6.7v148H218.5V364.7
				c0-2.8-1.6-5.4-4.1-6.6c-1-0.5-2.1-0.7-3.2-0.7c-1.6,0-3.2,0.5-4.5,1.6l-17.3,13.7l-32-33.5c10.4-12,40.2-42.9,73.5-55.2
				c1.9,7.3,5,15.7,10.1,23.7c7.2,11.3,19,21.8,36.4,26.1c10.2,2.5,20,3.8,29.2,3.8c16.5,0,31.5-4.2,43.5-12.8
				c13.5-9.7,22.5-24.2,27.2-42.4c20,6.4,54.2,22.6,77.9,62.8L417.6,377.8z"/>
			<path fill="#F4F8F8" d="M301.1,299.5C301.1,299.5,301.2,299.5,301.1,299.5c17.6,0,37.6-3.2,59-11.7
				c-4.2,10.9-10.4,19.2-18.6,25.1c-9.2,6.6-20.9,10.1-35,10.1c-7.9,0-16.5-1.1-25.7-3.4c-13.5-3.4-21.9-11-27.7-19.9
				c-2-3.1-3.6-6.4-4.9-9.7C260.5,294.5,278.7,299.5,301.1,299.5z"/>
		</g>
	</g>
</g>
<g id="Layer_1_1_">
</g>
</svg>
