<?xml version="1.0" encoding="utf-8"?>
<!-- Generator: Adobe Illustrator 18.1.1, SVG Export Plug-In . SVG Version: 6.00 Build 0)  -->
<svg version="1.1" xmlns="http://www.w3.org/2000/svg" xmlns:xlink="http://www.w3.org/1999/xlink" x="0px" y="0px"
	 viewBox="0 0 1200 1200" enable-background="new 0 0 1200 1200" xml:space="preserve">
<g id="Layer_1">
	<rect fill="#A9CABA" width="1200" height="1200"/>
</g>
<g id="Layer_2">
	<g>
		<path fill="#7E9689" d="M241,882.6c0,17.8,47.5,32.3,106,32.3c58.6,0.1,106-14.3,106.1-32.1c0-17.8-47.5-32.3-106-32.3
			C288.4,850.4,241,864.8,241,882.6z"/>
		<polygon fill="#55645E" points="316,124.3 325.6,884.6 363.6,884.6 373.3,133.7 		"/>
		<polygon fill="#F2F2F2" points="334.7,162.4 338,222.6 568,234 616.1,187.5 570.4,151 		"/>
		<polygon fill="#F2F2F2" points="359.4,244.9 357.8,303.5 155.7,312.5 105.9,277.1 151.5,229.5 		"/>
		<polygon fill="#F2F2F2" points="338,323.9 339.6,380.9 547.1,387.1 584.5,352.4 542.9,312.7 		"/>
		<polygon fill="#F2F2F2" points="357.8,400.2 356.1,461.1 173.3,479.8 108.6,436.1 170.9,391.1 		"/>
		<polygon fill="#F2F2F2" points="337.7,489.2 339.3,541.3 524,555.2 564.7,522.2 525.6,477 		"/>
		<polygon fill="#F2F2F2" points="350.5,565.3 353.8,623.2 201,644.2 146.8,604 200.5,565.6 		"/>
	</g>
	<g>
		<g>
			<g>
				<path fill="#7E9689" d="M699,1068.4c0,18.3,66.2,33.2,147.9,33.3c81.7,0.1,148-14.7,148-33.1c0-18.3-66.2-33.2-147.9-33.3
					C765.3,1035.3,699,1050.1,699,1068.4z"/>
				<path fill="#553625" d="M756.5,956.2l5.6,80.9c0,0-24.8-18.5-36.7,2.8c-16.8,29.9,52,14,52,14l1.8-77.2c0,0,77.5,13.8,173.5,1.8
					l3.7,66.9c0,0-28.1-25.4-37.8,0c-13,33.9,51.7,11.6,51.7,11.6l8.3-94C978.6,962.9,895.2,941.8,756.5,956.2z"/>
				<g>
					<g>
						<path fill="#FDDCBE" d="M743.9,789.1c0,0-31.1-271.7,184-185c0,0,68.1,48.4,71.2,187.2C791.4,835.8,743.9,789.1,743.9,789.1z"
							/>
						<path fill="#553625" d="M700.9,524c0,0-1.9,168.3,213.8,125l20.5,50.9c0,0,22.5-23.5,29.7,1.1c7.2,24.6-23.6,16.7-23.6,16.7
							s26.7,57.7,57.7,73.7c-1,2.1,70.6-274.1-45.3-226.6c0,0-9.2-40.6-78.8-41.9C803,521.5,766.8,593.7,700.9,524z"/>
						<path fill="#553625" d="M781.6,706.1c-0.2,5.7-3.1,10.3-6.4,10.2c-3.3-0.1-5.8-4.9-5.6-10.6c0.2-5.7,3.1-10.3,6.4-10.2
							C779.2,695.6,781.8,700.4,781.6,706.1z"/>
						
							<ellipse transform="matrix(0.9993 3.638270e-002 -3.638270e-002 0.9993 26.2585 -30.9629)" fill="#553625" cx="863.9" cy="706" rx="6" ry="10.4"/>
					</g>
				</g>
				<path fill="#F5F5F5" d="M743.9,789.1l12.6,167.1c0,0,87.1,21.8,222.1,6.7l20.5-171.6C999.1,791.3,829.6,817.2,743.9,789.1z"/>
			</g>
			<g>
				<path fill="#F5F5F5" d="M746.4,794.4l1.1,28.8c-7.4,2.7-13.6,6.5-18.8,11l-15-24.1C730.2,796.2,746.4,794.4,746.4,794.4z"/>
				<path fill="#FDDCBE" d="M713.7,810.1l15,24.1c-45.8,39.9-15.3,141.1-15.3,141.1l6.1,19.4c0.3,1.4,2,10-2,10.7
					c-1.9,0.4-3.3-0.9-4.3-2.5c-0.2,1.8-0.9,3.4-2.7,3.8c-1.8,0.3-3-0.7-4-2.1c-0.3,1.6-1,3-2.6,3.3c-1.9,0.4-3.3-0.9-4.3-2.5
					c-0.2,1.8-0.9,3.5-2.7,3.8c-3.8,0.7-5.4-4.7-5.9-6.6l-4.5-23.1C664.5,876.2,689.6,830.3,713.7,810.1z"/>
			</g>
		</g>
		<g>
			<path fill="#FDDCBE" d="M1001.7,581.8c0.2,0,0.3,0,0.3,0S1001.9,581.8,1001.7,581.8z"/>
			<path fill="#F5F5F5" d="M995.4,797.7l-3.9,28.8c15.1-2.4,31.5-10.4,46.6-23l-20.7-19.1C1010.2,790.1,1002.7,794.6,995.4,797.7z"
				/>
			<path fill="#FDDCBE" d="M1092,686.8c-3-66.6-55-107.7-55-107.7s-41.6-27.7-55.3-3.9c0,0-3.2,4.9,1.9,4.5s11.3-8.3,18.4-4.3
				c0,0-7.1-1.9-7.1,3.8c0,2.7,5.4,2.7,6.8,2.6c0.2,0,0.3,0,0.3,0s-0.1,0-0.3,0c-1.3,0.1-6.2,0.6-6.4,3.7c-0.2,4.6,3.9,4.5,5.2,4.4
				c0.2,0,0.4-0.1,0.4-0.1s-0.2,0-0.4,0.1c-1.2,0.2-4.6,1.2-3.2,5.4c1.5,4.5,8.4,1.1,8.4,1.1s15.9-2.6,23.8,6.4
				c61.7,74.7,29.4,148.6-12.2,181.5l20.7,19.1C1067.9,778.8,1092.6,736.6,1092,686.8z"/>
			<path fill="#FDDCBE" d="M1000.5,589.9c0.2,0,0.4-0.1,0.4-0.1S1000.7,589.9,1000.5,589.9z"/>
		</g>
		<g>
			<path fill="#553625" d="M752.6,702.7c0,0.2,0.3,0.2,0,0.2C752.5,702.7,752.5,702.6,752.6,702.7z"/>
			<path fill="#553625" d="M780.7,677.9c0.3,1.1-0.8,0.7-0.7,1.5c0,0.1-0.4-0.4-0.4-0.2c0.2,0.9-0.7,1.1-1.5,1L778,680
				c-0.2,0,0.1,0.5,0,0.5l-0.2-0.2c0.2,0.3-0.1,0.3,0.1,0.5l-0.4-0.3l0.2,0.3c0.4,0.8-0.4,0.3-0.3,0.8l-0.1-0.2
				c0,0.7-0.4,0.9-0.6,1.4l-0.3-0.4c0.2,0.3,0.2,0.5,0.2,0.6c-0.3-0.3,0.1,0.4-0.2,0.3l0-0.1c0.2,0.4-0.3-0.1,0,0.4l-0.3-0.2
				c0.3,0.4-0.3-0.1-0.2,0.2l0.1,0.1c0,0.2-0.2,0-0.2,0.1l0,0c0,0.2-0.3,0.1,0,0.4c-0.3-0.2,0-0.2-0.4-0.5c-0.1,0.7-0.7,1.1-1.1,1.5
				l-0.4-0.2c0,0.1-0.1,0.2,0,0.4c0,0-0.2-0.1-0.2-0.1c-0.2,0,0.2,0.4,0,0.4l-0.2-0.3c0.1,0.3,0,0.4,0,0.5l-0.1-0.2
				c0.2,0.4-0.2,0.1-0.2,0.4l-0.1-0.2c-0.3-0.1,0.3,0.4,0.1,0.4l-0.2-0.2c0.2,0.4-0.1,0.5-0.1,0.7l-0.1-0.1
				c-0.1,0.2-0.3,0.2-0.3,0.4c-0.1,0-0.4-0.5-0.5-0.3c0.3,0.4-0.1,0.3,0.4,0.7c-0.2,0-0.5,0-0.4,0.2c-0.1-0.2-0.5-0.4-0.4-0.5
				l-0.3-0.2c-0.1-0.2,0.1,0-0.1-0.2c0,0.1,0,0.3-0.1,0.3c0.1,0.3,0.4,0.8,0.3,1c-0.1-0.2-0.4-0.4-0.4-0.5l0.4,0.9
				c0,0.1-0.3-0.3-0.3-0.1l0.2,0.3c-0.1,0-0.1,0.3-0.5-0.1c-0.1-0.1,0-0.1-0.2-0.2c-0.1,0.1,0,0.2-0.1,0.3l0,0c-0.1,0,0,0.3,0.2,0.5
				c0,0-0.2-0.2-0.1-0.2c0.2,0.2,0.1,0.4,0,0.5l-0.2-0.3c0.1,0.4,0.1,0.6,0.1,0.8c0.2,0.2-0.2-0.4-0.1-0.3c-0.4-0.1,0,0.6-0.5,0.4
				c0-0.1,0.2,0.2,0.2,0.2c-0.1,0-0.3-0.2-0.3-0.1c-0.1-0.1,0,0.1,0,0.2c0.1,0.1-0.1-0.1,0-0.1c0,0.2,0,0.7-0.4,0.6
				c0.1,0.1,0.2,0.5,0.2,0.5l-0.2-0.2c-0.2-0.1-0.1,0.1-0.3-0.1c0.2,0.4,0.1-0.5,0.2-0.2c-0.2-0.2,0.2,0.5-0.1,0.2
				c-0.1,0.1,0.1,0.4-0.2,0.3c0.1,0-0.2-0.4-0.3-0.3c-0.1,0.1,0.1,0.1,0,0.3l0,0.1c0.2,0.2-0.1,0.1,0.1,0.3
				c-0.2-0.2-0.1,0.3-0.4-0.1l-0.2-0.3c0,0.1,0.2,0.4,0.3,0.5l-0.1-0.1c0.4,0.5-0.1,0.1,0.1,0.5c-0.2-0.1-0.3,0.2-0.6,0
				c0,0.2,0.1,0.4-0.1,0.4l-0.1-0.2c-0.2-0.1-0.1,0-0.1,0.2c0-0.1-0.3-0.2-0.5-0.3c0,0.2,0.3,0.4,0.4,0.6c-0.5-0.4,0,0.5-0.4,0.2
				c0-0.1-0.1-0.3-0.2-0.4c-0.5-0.4,0.1,0.5-0.2,0.3l0.4,0.3c-0.3-0.2,0,0.4-0.3,0c0.1,0.2-0.2,0,0.1,0.3c-0.5-0.1-0.3,0.6-1,0
				c0,0.1-0.1,0.1,0.1,0.3c0.2,0.2-0.1-0.2,0.1-0.1l0.1,0.2c-0.1,0-0.2,0-0.4-0.4c-0.3-0.1,0.4,0.7,0.1,0.7
				c-0.1-0.2-0.2-0.2-0.2-0.1l0.1,0.3c-0.2,0-0.4-0.3-0.6-0.5c0,0.1-0.1,0.1,0,0.4l-0.3-0.3c0.3,0.2,0.1,0.2,0.1,0.3l0-0.1
				c-0.1-0.1-0.1,0-0.1,0.1c0.1,0.1,0.3,0.2,0.3,0.2c0.1,0.1,0,0.1,0.1,0.3c-0.2-0.3-0.2-0.1-0.3-0.1c-0.1,0,0.1,0.3,0.1,0.3
				c-0.1-0.1-0.1,0.1-0.2-0.2c0-0.1,0.2,0.1,0.1,0c-0.1-0.1-0.3-0.3-0.2-0.1c0.1,0.2,0.4,0.5,0.2,0.4l-0.2-0.3l-0.2,0l0.2,0.2
				l-0.1-0.1c0.2,0.3-0.1,0.2,0.1,0.5c0,0.1-0.2-0.1-0.3-0.1l0,0c-0.2-0.1-0.2,0.1-0.1,0.3l0-0.1c0,0-0.1,0.1,0,0.3
				c-0.2-0.1-0.8-0.8-0.6-0.5c-0.1,0.1,0.2,0.5,0.4,0.6c-0.3,0-0.1,0.5-0.5,0.2l0.1,0.2c-0.3,0.1-0.2,0.7-0.8,0.4
				c0-0.1-0.2-0.2-0.3-0.4c0.1,0.2-0.2-0.2,0,0.2c0.2,0.2,0.3,0.3,0.4,0.3c0,0.2-0.2,0.4-0.4,0.3c0.1,0.1,0.1,0.1,0.2,0.2
				c-0.3-0.3-0.4-0.3-0.4-0.1l0.2,0.2l-0.2-0.2c0,0.1,0.3,0.4,0.1,0.3l-0.2-0.2c0.1,0.2,0.2,0.6,0,0.5l-0.3-0.2
				c0,0.1,0.1,0.3,0.2,0.3c-0.3-0.1-0.4,0-0.7-0.2c0.3,0.8,0,1.1-0.3,1.3l-0.1-0.2c-0.2-0.1,0.2,0.3,0.1,0.2
				c-0.1-0.2-0.3-0.3-0.4-0.5c-0.2-0.1,0.1,0.4,0.1,0.5c0.2,0.2-0.1-0.2,0.1,0.1c0,0.1-0.3,0,0,0.3c-0.1-0.1-0.3-0.3-0.4-0.5
				l0.1,0.2c-0.4-0.3-0.4-0.8-0.8-1.1l0,0.1c-0.3-0.3-0.2-0.5-0.4-0.5c0.1,0.2,0.4,0.7,0.6,0.8c-0.1,0.2,0.6,0.8,0.4,0.9
				c-0.2-0.1,0.1-0.1-0.2-0.4c-0.3-0.2,0,0.2-0.1,0.2c0.2,0.1,0.4,0.4,0.4,0.5c-0.2-0.1-0.2-0.3-0.3-0.3c0.1,0.2,0.2,0.4,0.3,0.4
				c0.3,0.4-0.2,0,0,0.3c-0.3-0.2-0.5-0.7-0.7-0.8c0.2,0.2,0.2,0.5,0.6,0.8c-0.1,0-0.3-0.2-0.4-0.4c-0.2-0.1,0.3,0.6-0.2,0.1
				l0.2,0.3l-0.3-0.2c-0.1,0,0.1,0.5-0.2,0.1c0,0.1-0.1,0.1,0.2,0.4c0.2,0.1-0.1-0.3,0.3,0.1c-0.3-0.3-0.1,0.1,0,0.3l-0.1-0.1
				c0,0.1-0.1,0.1,0.1,0.3l-0.2-0.2l0.2,0.3c0,0.2-0.4-0.4-0.4-0.2l-0.1-0.3c0,0.1-0.2-0.1-0.2,0l0.5,0.7c0,0.1-0.2-0.2-0.1,0.1
				l-0.2-0.3c-0.1-0.1-0.4-0.3-0.4-0.2c0,0.1,0.2,0.5,0.4,0.5c0,0-0.2,0-0.3-0.2c0,0.2,0.2,0.2,0.3,0.4c-0.2-0.1-0.4-0.2-0.7-0.4
				l-0.2-0.4l-0.1,0c-0.2-0.4-0.2-0.2-0.5-0.5c-0.1,0,0,0.1,0,0.2c0.5,0.4,0.5,0.8,0.9,1.2c0,0.3-1.1-1-0.6-0.2
				c0.1,0.1,0.4,0.5,0.3,0.3c-0.1,0,0.3,0.5,0.1,0.4c-0.1-0.3-0.5-0.4-0.6-0.7c0.1,0.2,0.2,0.1,0.1,0c-0.2-0.1-0.4-0.5-0.5-0.4
				c0,0.1-0.1,0.2,0.1,0.4c0.2,0.3,0.1-0.1,0.3,0.2c0,0.2-0.4-0.2,0,0.3c0-0.1,0.3,0.1,0.4,0.3l0,0.2l-0.1-0.2
				c-0.2,0,0.2,0.3,0.1,0.4l-0.4-0.3c-0.2-0.3,0.3,0-0.1-0.5c-0.1,0.1,0.1,0.3-0.1,0.3l0-0.1c0,0-0.6-0.6-0.4-0.1
				c0.1,0.2,0.1,0.2,0.3,0.4c-0.1,0.2,0,0.4,0,0.5c-0.3-0.4-0.2,0.1-0.4-0.3c0.2,0.2,0.4,0,0.2-0.4c-0.4-0.4,0.2,0-0.2-0.5
				c-0.1,0.1-0.5-0.3-0.7-0.6c0,0,0,0.1,0,0.2c0.2,0.3,0.2,0.2,0.5,0.5c-0.2,0-0.2,0.3,0,0.6c-0.1-0.1-0.4-0.3-0.3-0.4
				c-0.1,0.2-0.3,0.3-0.5,0.4c0.4,0.3-0.1,0.2,0.3,0.5c0.2,0,0.5,0.3,0.6,0.5c-0.1,0-0.2-0.2-0.3-0.2c0.1,0.3-0.4-0.3-0.2,0.1
				c0-0.2-0.4-0.5-0.7-0.8c0.1,0.3-0.2-0.2-0.3-0.1c0.1,0.3,0.1,0.5,0,0.7c-0.4-0.2-0.3,0.3-0.4,0.4c-0.2-0.1-0.5-0.5-0.6-0.5
				c-0.1,0.1,0.4,0.3,0.1,0.3l-0.1-0.1c0,0.1-0.4-0.1,0,0.5l-0.3-0.4c-0.1,0,0,0.1,0,0.1l-0.3-0.3c-0.3-0.2-0.1,0.2-0.2,0.3l0.3,0.2
				c0,0.3-0.3,0.1-0.3,0.3l-0.2-0.2l0,0.2c-0.2-0.2-0.4-0.3-0.2-0.1l-0.3-0.7c0.2,0.1,0.2,0.3,0.4,0.5c0.2,0.2,0.3,0,0.1-0.2
				c-0.1,0,0,0.1,0,0.2c-0.3-0.3-0.2-0.3-0.4-0.6c0,0-0.1,0,0,0.1c-0.1-0.2-0.1-0.3,0-0.3c0.1,0.2,0.2,0.2,0.3,0.3
				c-0.2-0.3-0.2-0.4-0.1-0.4c0.4,0.3,0-0.4,0.2-0.4c0.2,0.3,0.3,0.6,0.4,0.8c0.2,0.1,0.1-0.1,0.3,0c-0.2-0.2-0.4-0.6-0.4-0.8
				l0.2,0.2c0-0.2-0.3-0.5-0.1-0.5c0.3-0.1,0.5-0.2,0.6-0.3l0.2,0.2c-0.3-0.5,0.1-0.4,0-0.7c0.4,0,0.2-0.5,0.6-0.3
				c0.2-0.4,0.3-0.8,0.7-1l0.2,0.3c-0.1-0.3,0.2,0.1,0.2,0c-0.3-0.2-0.2-0.4-0.3-0.6c0.3,0.1,0.3-0.3,0.2-0.6l0.2,0.2
				c-0.2-0.5,0.2-0.3,0.5-0.4c0.1,0.1,0.3,0.2,0.3,0.2c-0.2-0.4-0.1-0.4-0.2-0.7c0.1-0.1,0.3-0.1,0.5-0.1c-0.1-0.8,0.6-0.8,0.7-1.4
				l0.2,0.2c-0.1-0.8,0.7-0.7,0.8-1.3l0.3,0.4c0.2,0,0.1-0.3-0.2-0.6c0.2,0,0.1-0.4,0.4-0.1c0.2,0,0-0.3,0-0.4
				c0.3,0,0.4-0.1,0.5-0.4l-0.1,0c0.1,0.1,0.2,0.3,0.3,0.3c0-0.2,0.3-0.1-0.2-0.5c0.4,0.1,0.2-0.6,0.8-0.4c-0.1-0.1-0.1-0.2-0.2-0.3
				c0.2-0.2,0.6,0,0.5-0.4c0.1,0,0.2,0.3,0.2,0.2l-0.2-0.3c0.1-0.5,0.8-0.2,1-0.5c0.2-0.7,0.8-0.9,1.2-1.4l0.1,0.1
				c-0.2-0.5,0.7,0.1,0.3-0.6c0.1,0.1,0.2-0.1,0.3,0.1c-0.1-0.4,0.5,0,0.4-0.5l0,0.1c0.4,0.1,0.2-0.4,0.6-0.3l0.1,0.2
				c0.2,0.1-0.2-0.6,0.3-0.1c0,0-0.2-0.3-0.2-0.2c0.5-0.2,0.7-0.8,1-1.3c0.5,0,0.7,0.8,0.6,0.2c0.1,0.1-0.1-0.2-0.1-0.1
				c0-0.2,0.6,0.4,0.4,0.1c-0.3-0.3-0.1-0.2-0.3-0.4c0.3,0,0.6,0.3,0.6-0.1l0.1,0.2c-0.2-0.6,0.2-0.5-0.1-1.1
				c0.8-0.9,1.4-1.9,2.3-2.8c0.9-0.7,1.6-1.6,2.7-2.2c0.6,0.2,0.6,0.2,0.6-0.2l0.1,0.1c-0.3-0.3,0.1-0.2-0.1-0.5
				c0.4-0.2,0.6-0.6,0.9-0.9c0,0.1,0.2,0.4,0.2,0.3l-0.1-0.3l0.1,0.1c0-0.1-0.1-0.3-0.2-0.4c0.6-1,2-1.1,2.7-1.9
				c0.3,0,0.5-0.4,0.6-0.7c1-0.1,1.9-0.3,2.3-1.1C780.2,676.6,780.8,677.5,780.7,677.9z"/>
			<path fill="#553625" d="M752.7,702.5c0.2,0.1,0.3,0.2,0.5,0.4L752.7,702.5z"/>
			<path fill="#553625" d="M756.1,702.5c0-0.1,0.1,0,0.1,0.1c0,0,0.1,0.2,0,0.1L756.1,702.5z"/>
			<path fill="#553625" d="M756.7,702.1c0.1,0.2,0.1,0.4,0.1,0.4L756.7,702.1z"/>
			<path fill="#553625" d="M757.7,702.3c0.2,0.1,0.2,0.2,0.1,0.2L757.7,702.3z"/>
			<path fill="#553625" d="M757.5,702c0,0,0.1,0,0.2,0.1C757.6,702,757.7,702.2,757.5,702z"/>
			<path fill="#553625" d="M758.9,701.5c0,0,0-0.2,0.1-0.1C758.9,701.4,759,701.7,758.9,701.5z"/>
			<path fill="#553625" d="M759.1,700.9L759.1,700.9c0.1,0,0.2,0.1,0.2,0.2L759.1,700.9z"/>
			<polygon fill="#553625" points="767.1,692.7 767.1,692.8 767,692.7 			"/>
			<path fill="#553625" d="M770.9,689.4c0-0.1,0.2,0.1,0.2,0.1C771,689.5,770.9,689.3,770.9,689.4z"/>
			<polygon fill="#553625" points="772.2,686.8 772.2,686.9 771.9,686.6 			"/>
		</g>
		<g>
			<path fill="#553625" d="M886,703.9c0.2,0,0.2-0.3,0.2,0C886,703.9,885.9,704,886,703.9z"/>
			<path fill="#553625" d="M862.5,677.3c1.1-0.4,0.6,0.7,1.4,0.6c0.1,0-0.4,0.4-0.2,0.4c0.9-0.2,1,0.7,0.9,1.5l-0.1,0.1
				c0,0.2,0.5-0.1,0.5,0l-0.2,0.2c0.3-0.2,0.2,0,0.5-0.1l-0.3,0.4l0.3-0.2c0.8-0.4,0.2,0.4,0.7,0.2l-0.2,0.1
				c0.6-0.1,0.9,0.4,1.3,0.6l-0.4,0.3c0.3-0.2,0.5-0.2,0.6-0.2c-0.3,0.3,0.4-0.1,0.3,0.2l-0.1,0c0.4-0.2-0.1,0.3,0.3,0l-0.2,0.3
				c0.4-0.3-0.1,0.3,0.1,0.2l0.1-0.1c0.2,0,0,0.2,0.1,0.2l0,0c0.2,0,0.1,0.3,0.4,0c-0.2,0.3-0.2,0-0.5,0.4c0.7,0.1,1,0.6,1.4,1
				l-0.2,0.3c0.1,0,0.2,0.1,0.4,0c0,0-0.1,0.2-0.1,0.2c-0.1,0.2,0.4-0.2,0.4,0l-0.3,0.2c0.3-0.2,0.4,0,0.5,0l-0.2,0.1
				c0.4-0.2,0.1,0.2,0.3,0.1l-0.2,0.1c-0.1,0.3,0.4-0.3,0.4-0.1l-0.2,0.2c0.4-0.2,0.5,0.1,0.7,0.1l-0.1,0.1c0.1,0.1,0.1,0.3,0.4,0.3
				c0,0.1-0.5,0.4-0.3,0.4c0.4-0.3,0.3,0.1,0.7-0.4c0,0.2,0,0.4,0.2,0.4c-0.2,0.1-0.4,0.5-0.5,0.4l-0.2,0.3c-0.2,0.1,0-0.1-0.2,0.1
				c0.1,0,0.3,0,0.3,0.1c0.3-0.1,0.8-0.4,1-0.3c-0.2,0.1-0.4,0.4-0.5,0.4l0.9-0.5c0.1,0-0.3,0.3-0.1,0.2l0.3-0.2
				c0,0.1,0.3,0.1-0.1,0.4c-0.1,0.1-0.1,0-0.2,0.2c0.1,0.1,0.2,0,0.3,0l0,0c0,0.1,0.3,0,0.4-0.2c0,0-0.2,0.2-0.1,0.1
				c0.2-0.2,0.4-0.1,0.5,0l-0.3,0.2c0.4-0.2,0.6-0.1,0.8-0.1c0.2-0.2-0.4,0.2-0.3,0.1c-0.1,0.4,0.6,0,0.4,0.5c0,0,0.2-0.2,0.2-0.2
				c0,0.1-0.2,0.3-0.1,0.3c-0.1,0.1,0.1,0,0.2,0c0.1-0.1-0.1,0.1-0.1,0c0.2,0,0.7,0,0.6,0.4c0.1-0.1,0.4-0.2,0.5-0.2l-0.2,0.2
				c-0.1,0.2,0.1,0.1-0.1,0.3c0.3-0.2-0.5-0.1-0.2-0.2c-0.2,0.2,0.5-0.2,0.2,0.1c0.1,0.1,0.4-0.1,0.2,0.2c0-0.1-0.4,0.2-0.3,0.3
				c0.1,0.1,0.1-0.1,0.3-0.1l0.1,0c0.2-0.2,0.1,0.1,0.3-0.1c-0.2,0.2,0.2,0-0.1,0.4l-0.3,0.2c0.1,0,0.4-0.2,0.5-0.3l-0.1,0.1
				c0.5-0.4,0.1,0.1,0.5-0.1c-0.1,0.2,0.2,0.3,0,0.5c0.2,0,0.4-0.1,0.4,0l-0.2,0.1c-0.1,0.2,0,0.1,0.2,0.1c-0.1,0-0.2,0.3-0.3,0.5
				c0.2,0,0.4-0.3,0.6-0.4c-0.4,0.5,0.5-0.1,0.1,0.4c-0.1,0-0.3,0.1-0.4,0.2c-0.4,0.5,0.4-0.2,0.3,0.1l0.3-0.4c-0.2,0.3,0.4,0,0,0.3
				c0.2-0.1,0,0.2,0.3-0.1c-0.1,0.4,0.6,0.3,0,0.9c0.1,0,0.1,0.1,0.3-0.1c0.2-0.2-0.2,0.1-0.1-0.1l0.2-0.1c0,0.1,0,0.2-0.4,0.4
				c-0.1,0.3,0.7-0.4,0.7-0.1c-0.2,0.1-0.2,0.2-0.1,0.2l0.3-0.1c0,0.2-0.3,0.4-0.5,0.6c0.1,0,0.1,0.1,0.3-0.1l-0.3,0.3
				c0.2-0.3,0.2-0.1,0.3-0.1l-0.1,0c-0.1,0.1,0,0.1,0.1,0.1c0.1-0.1,0.2-0.3,0.2-0.3c0.1-0.1,0.1,0,0.3-0.1
				c-0.3,0.2-0.1,0.2-0.1,0.3c0,0.1,0.3-0.1,0.3-0.1c-0.1,0.1,0,0.1-0.2,0.2c-0.1,0,0.1-0.1,0-0.1c-0.1,0.1-0.3,0.3-0.1,0.2
				c0.2-0.1,0.5-0.4,0.4-0.2l-0.3,0.2l0,0.2l0.2-0.2l-0.1,0.1c0.3-0.2,0.2,0.1,0.5-0.1c0.1,0-0.1,0.2-0.1,0.3l0,0
				c-0.1,0.2,0.1,0.2,0.3,0.1l-0.1,0c0,0,0.1,0.1,0.3,0c-0.1,0.2-0.8,0.8-0.5,0.6c0.1,0.1,0.5-0.3,0.6-0.4c0,0.3,0.5,0.1,0.2,0.5
				l0.2-0.1c0.1,0.3,0.6,0.2,0.3,0.7c-0.1,0-0.2,0.2-0.4,0.3c0.2-0.1-0.2,0.2,0.2,0c0.2-0.2,0.3-0.3,0.3-0.4c0.2,0,0.4,0.2,0.2,0.4
				c0.1-0.1,0.1-0.1,0.2-0.2c-0.3,0.3-0.3,0.4-0.1,0.4l0.2-0.2l-0.2,0.2c0.1,0,0.4-0.3,0.3-0.1l-0.2,0.2c0.2-0.1,0.6-0.2,0.5,0
				l-0.2,0.3c0.1,0,0.3-0.1,0.3-0.2c-0.1,0.3,0,0.4-0.2,0.6c0.8-0.3,1.1,0,1.3,0.2l-0.2,0.1c-0.1,0.2,0.3-0.2,0.2-0.1
				c-0.2,0.1-0.3,0.3-0.5,0.4c-0.1,0.2,0.4-0.1,0.5-0.1c0.2-0.2-0.2,0.1,0.1-0.1c0.1-0.1,0,0.3,0.3,0c-0.1,0.1-0.3,0.3-0.5,0.4
				l0.2-0.1c-0.3,0.4-0.8,0.4-1.1,0.8l0.1,0c-0.3,0.3-0.5,0.2-0.5,0.4c0.2-0.1,0.7-0.4,0.8-0.6c0.2,0,0.7-0.6,0.8-0.4
				c-0.1,0.2-0.1-0.1-0.4,0.2c-0.2,0.3,0.2,0,0.2,0.1c0.1-0.2,0.4-0.4,0.5-0.4c-0.1,0.2-0.3,0.2-0.3,0.3c0.2-0.1,0.4-0.2,0.4-0.3
				c0.4-0.3,0,0.2,0.3,0c-0.2,0.3-0.7,0.5-0.8,0.7c0.2-0.2,0.5-0.2,0.8-0.6c0,0.1-0.2,0.3-0.4,0.4c-0.1,0.2,0.6-0.3,0.1,0.2l0.3-0.2
				l-0.2,0.3c0,0.1,0.5-0.2,0.1,0.2c0.1,0,0.1,0.1,0.4-0.2c0.1-0.2-0.3,0.1,0.1-0.3c-0.3,0.3,0.1,0.1,0.3,0l-0.1,0.1
				c0.1,0,0.1,0.1,0.3-0.1l-0.2,0.2l0.3-0.2c0.2,0-0.4,0.4-0.2,0.4l-0.2,0.1c0.1,0-0.1,0.2,0,0.2l0.7-0.5c0.1,0-0.2,0.2,0,0.1
				l-0.3,0.2c-0.1,0.1-0.3,0.4-0.2,0.4c0.1,0,0.5-0.2,0.5-0.4c0,0,0,0.2-0.2,0.3c0.2,0,0.2-0.2,0.4-0.3c-0.1,0.2-0.2,0.4-0.4,0.7
				l-0.4,0.2l0,0.1c-0.3,0.2-0.2,0.2-0.5,0.5c0,0.1,0.1,0,0.2,0c0.4-0.5,0.8-0.5,1.2-0.9c0.2,0-1,1.1-0.2,0.6
				c0.1-0.1,0.5-0.4,0.3-0.3c0,0.1,0.5-0.3,0.4-0.1c-0.3,0.1-0.4,0.5-0.7,0.6c0.2-0.1,0.1-0.2,0-0.1c-0.1,0.2-0.5,0.4-0.4,0.5
				c0.1,0,0.2,0.1,0.4-0.1c0.3-0.2-0.1-0.1,0.2-0.3c0.2,0-0.2,0.4,0.3,0c-0.1,0,0.2-0.3,0.3-0.4l0.2,0l-0.2,0.1
				c0,0.2,0.3-0.2,0.4-0.1l-0.3,0.4c-0.3,0.2,0-0.3-0.5,0.1c0.1,0.1,0.3-0.1,0.3,0.1l-0.1,0c0,0-0.6,0.6-0.1,0.4
				c0.2-0.1,0.2-0.1,0.4-0.3c0.2,0.1,0.4,0,0.5,0c-0.4,0.3,0.1,0.2-0.3,0.4c0.2-0.2,0-0.4-0.4-0.1c-0.4,0.4,0-0.2-0.5,0.2
				c0.1,0.1-0.3,0.5-0.6,0.7c0,0,0.1,0,0.2,0c0.3-0.2,0.2-0.2,0.5-0.5c0,0.2,0.3,0.2,0.6,0c-0.1,0.1-0.3,0.4-0.4,0.3
				c0.2,0.1,0.3,0.2,0.3,0.4c0.3-0.4,0.2,0.1,0.5-0.3c0-0.1,0.3-0.5,0.5-0.6c0,0.1-0.2,0.2-0.2,0.3c0.3-0.1-0.3,0.4,0.1,0.1
				c-0.2,0-0.5,0.4-0.8,0.7c0.3-0.1-0.2,0.2-0.1,0.3c0.3-0.1,0.5-0.1,0.6,0c-0.2,0.4,0.3,0.3,0.4,0.4c-0.1,0.2-0.5,0.5-0.5,0.6
				c0.1,0.1,0.3-0.4,0.3-0.1l-0.1,0.1c0.1,0-0.1,0.4,0.5,0l-0.4,0.3c0,0.1,0.1,0,0.1,0l-0.3,0.3c-0.2,0.3,0.2,0.1,0.2,0.2l0.2-0.3
				c0.3,0,0.1,0.3,0.3,0.3l-0.2,0.2l0.2,0c-0.2,0.2-0.3,0.4-0.1,0.2l-0.7,0.3c0.1-0.2,0.3-0.2,0.5-0.4c0.2-0.2,0-0.3-0.2-0.1
				c0,0.1,0.1,0,0.2,0c-0.3,0.3-0.3,0.2-0.6,0.4c0,0,0,0.1,0.1,0c-0.2,0.1-0.3,0.1-0.3,0c0.2-0.1,0.2-0.2,0.3-0.3
				c-0.3,0.2-0.4,0.2-0.4,0.1c0.3-0.3-0.4,0-0.4-0.2c0.3-0.2,0.6-0.3,0.8-0.4c0.1-0.2-0.1-0.1,0-0.3c-0.2,0.2-0.6,0.4-0.8,0.4
				l0.2-0.2c-0.2,0-0.5,0.3-0.5,0.1c-0.1-0.3-0.2-0.4-0.3-0.6l0.2-0.2c-0.5,0.3-0.4-0.1-0.7,0c0-0.3-0.5-0.2-0.2-0.6
				c-0.4-0.2-0.8-0.3-1-0.6l0.3-0.2c-0.3,0.1,0.1-0.2,0-0.2c-0.2,0.3-0.4,0.2-0.6,0.3c0.1-0.3-0.3-0.3-0.6-0.2l0.2-0.2
				c-0.5,0.2-0.3-0.2-0.4-0.4c0.1-0.1,0.2-0.3,0.2-0.3c-0.4,0.2-0.4,0.1-0.7,0.2c-0.1-0.1-0.1-0.3-0.1-0.5c-0.8,0.1-0.8-0.5-1.3-0.6
				l0.2-0.2c-0.8,0.1-0.7-0.7-1.2-0.7l0.4-0.3c0-0.2-0.3-0.1-0.6,0.2c0-0.2-0.4,0-0.1-0.4c0-0.2-0.3,0.1-0.4,0
				c0-0.3-0.1-0.4-0.3-0.5l0,0.1c0.1-0.1,0.3-0.2,0.3-0.3c-0.2,0-0.1-0.3-0.5,0.2c0.1-0.4-0.6-0.2-0.4-0.7c-0.1,0.1-0.2,0.1-0.3,0.2
				c-0.1-0.2,0-0.6-0.4-0.5c0-0.1,0.3-0.2,0.2-0.2l-0.3,0.2c-0.5,0-0.2-0.8-0.5-0.9c-0.6-0.2-0.9-0.7-1.3-1.1l0.1-0.1
				c-0.5,0.2,0.1-0.7-0.6-0.3c0.1-0.1-0.1-0.2,0.1-0.3c-0.4,0.1,0-0.5-0.5-0.4l0.1,0c0.1-0.4-0.3-0.2-0.3-0.6l0.2-0.1
				c0.1-0.2-0.6,0.2-0.1-0.2c0,0-0.3,0.2-0.2,0.2c-0.1-0.5-0.8-0.6-1.2-0.9c0-0.5,0.8-0.7,0.2-0.6c0.1-0.1-0.2,0.1-0.1,0.1
				c-0.2,0,0.4-0.6,0.1-0.4c-0.3,0.3-0.2,0.1-0.4,0.3c0-0.3,0.3-0.6-0.1-0.5l0.2-0.1c-0.6,0.2-0.5-0.2-1.1,0.2
				c-0.8-0.8-1.8-1.3-2.6-2.1c-0.6-0.9-1.6-1.5-2-2.6c0.2-0.6,0.2-0.6-0.1-0.6l0.1-0.1c-0.3,0.3-0.2-0.1-0.5,0.1
				c-0.2-0.4-0.6-0.6-0.8-0.9c0.1,0,0.4-0.2,0.3-0.2l-0.3,0.1l0.1-0.1c-0.1,0-0.3,0.1-0.4,0.2c-1-0.5-1-1.9-1.8-2.6
				c0-0.3-0.4-0.5-0.6-0.6c-0.1-1-0.2-1.8-1.1-2.2C861.2,677.9,862.1,677.3,862.5,677.3z"/>
			<path fill="#553625" d="M885.8,703.8c0.1-0.2,0.2-0.3,0.4-0.5L885.8,703.8z"/>
			<path fill="#553625" d="M885.9,700.4c-0.1,0,0-0.1,0.1-0.1c0,0,0.2-0.1,0.1,0L885.9,700.4z"/>
			<path fill="#553625" d="M885.6,699.9c0.2-0.1,0.4-0.1,0.4-0.1L885.6,699.9z"/>
			<path fill="#553625" d="M885.8,698.9c0.1-0.1,0.2-0.2,0.2-0.1L885.8,698.9z"/>
			<path fill="#553625" d="M885.4,699.1c0,0,0-0.1,0.1-0.2C885.4,699,885.7,698.9,885.4,699.1z"/>
			<path fill="#553625" d="M885,697.8c0,0-0.2,0-0.1-0.1C884.8,697.8,885.2,697.6,885,697.8z"/>
			<path fill="#553625" d="M884.4,697.6L884.4,697.6c0-0.1,0.1-0.2,0.2-0.2L884.4,697.6z"/>
			<polygon fill="#553625" points="876.6,690.1 876.7,690.1 876.6,690.2 			"/>
			<path fill="#553625" d="M873.4,686.6c-0.1,0,0.1-0.2,0.1-0.2C873.6,686.4,873.4,686.5,873.4,686.6z"/>
			<polygon fill="#553625" points="871,685.3 871,685.3 870.7,685.6 			"/>
		</g>
		<path fill="#553625" d="M807.8,753.1c0,0,27.8-10.2,48.5-3c0,0,9.2,24.6-19,24.6C808.1,774.8,807.8,753.1,807.8,753.1z"/>
		<g>
			<path fill="#553625" d="M1023,492.4c-1.6-0.1-3.3-0.4-5.2-1.1c-1.9-0.6-3.7-1.6-5.3-2.8c-1.1-0.8-2.1-1.9-2.9-3
				c-0.8-1.2-1.3-2.4-1.3-3.8c1-1.5,1.9-2.8,2.7-3.9c0.8-1.1,1.6-2.1,2.3-3.1c0.6-0.8,1.1-1.5,1.5-2c0.4-0.5,0.8-1,1.2-1.4
				c0.4-0.4,0.8-0.8,1.2-1.3c0.4-0.4,1-1,1.7-1.7c1.5-1.8,3.4-2.9,5.9-3.5c2.4-0.6,5-1,7.6-1.2c2.7-0.2,5.2-0.5,7.7-0.9
				c2.5-0.4,4.4-1.3,5.8-2.8c0.2-0.2,0.4-0.4,0.7-0.7c0.3-0.3,0.5-0.5,0.7-0.7c0.9-1.2,1.7-2.5,2.5-3.9c0.7-1.4,1-2.9,0.8-4.4
				c-0.2-1.6-0.9-3.3-2.3-5.2c-1.4-1.9-3.7-4.1-6.9-6.6c-1.4-1.1-2.8-1.9-4-2.3c-2.1-0.8-4.6-0.6-7.4,0.6c-2.8,1.2-5.2,3.1-7.1,5.6
				c-0.6,0.8-1,1.5-1.2,2c-1,1.7-1.3,3.3-1.1,4.9c0.2,1.6,0.6,3.2,1,4.7c0.4,1.5,0.8,3,1,4.4c0.2,1.4-0.2,2.8-1.1,4
				c-2.1,2.3-4.4,3.3-7,3c-2.6-0.3-5.1-1.3-7.3-3c-1.5-1.2-2.9-2.6-4-4.2c-2.2-3.4-2.8-7.7-1.7-12.9c1.1-5.2,3.4-10,6.9-14.6
				c2.3-3.1,5-5.7,8.2-8c2.8-1.8,5.7-2.8,8.8-3.2c3.1-0.4,6.2-0.2,9.4,0.5c3.2,0.7,6.4,1.9,9.6,3.5c3.2,1.6,6.3,3.5,9.2,5.8l0.8,0.6
				c7.7,5.8,12.3,12.4,13.6,19.6c1.3,7.2-1.4,15.4-8.3,24.5c-1.2,1.5-3.2,2.7-6,3.5c-2.9,0.8-5.8,1.5-8.9,2.1
				c-3.1,0.6-5.9,1-8.4,1.3c-2.6,0.3-4,0.6-4.4,1c-1.3,1.3-2,1.9-2.2,1.9c-0.2,0-0.5,0.3-0.8,0.8c-0.6,0.8-1.1,1.6-1.6,2.4
				c-0.4,0.8-1.3,2-2.5,3.6L1023,492.4z M1004.8,491.1c1.6,0.7,3,1.6,4.5,2.7c2.6,2,4.5,4.3,5.4,7c1,2.6,0.7,5-0.9,7
				c-0.9,1.2-2.2,2.2-3.7,3c-1.9,0.8-4.2,1-7,0.5c-2.8-0.5-5.2-1.5-7.3-3.2c-2-1.5-3.3-3.4-3.9-5.6c-0.6-2.2-0.1-4.3,1.4-6.4
				c1.3-1.7,3.1-3.1,5.4-4.1C1001,491,1003,490.7,1004.8,491.1z"/>
		</g>
		<g>
			<path fill="#553625" d="M939.7,457.4c-1.3,1.2-3,2.3-5.1,3.4c-2.1,1-4.3,1.7-6.6,2c-1.6,0.2-3.2,0.2-4.8-0.1c-1.6-0.3-3-1-4.2-2
				c-0.4-2-0.7-3.8-1-5.4c-0.2-1.6-0.4-3.1-0.6-4.4c-0.2-1.2-0.3-2.1-0.4-2.8c-0.1-0.7-0.2-1.4-0.2-2.1c0-0.7,0-1.3,0-2
				c0-0.7,0-1.6,0-2.8c-0.2-2.6,0.4-5.2,2-7.6c1.5-2.4,3.3-4.8,5.3-7.2c2-2.3,3.8-4.7,5.5-7c1.7-2.3,2.5-4.7,2.5-7
				c0-0.3-0.1-0.7,0-1.1c0-0.4,0-0.8,0-1.1c-0.2-1.8-0.6-3.5-1.2-5.2c-0.5-1.7-1.5-3.1-2.9-4.3c-1.4-1.1-3.5-1.9-6.1-2.4
				c-2.7-0.5-6.3-0.4-11,0.3c-2,0.3-3.8,0.7-5.2,1.4c-2.4,1.1-4.2,3.3-5.6,6.6c-1.3,3.3-1.8,6.8-1.3,10.4c0.2,1.2,0.3,2,0.6,2.6
				c0.6,2.1,1.6,3.8,3.1,4.9c1.5,1.1,3,2.2,4.7,3c1.6,0.9,3.1,1.8,4.4,2.9c1.3,1,2.1,2.4,2.3,4.1c0.2,3.5-0.9,6.3-3.4,8.1
				c-2.4,1.9-5.2,3.1-8.4,3.5c-2.2,0.3-4.4,0.2-6.7-0.2c-4.6-1-8.6-4.1-11.8-9.2c-3.3-5.1-5.4-11-6.3-17.5
				c-0.6-4.4-0.5-8.8,0.2-13.2c0.8-3.7,2.4-6.9,4.6-9.8c2.2-2.8,4.9-5.2,8.2-7.2c3.2-2,6.8-3.6,10.7-4.9c3.9-1.3,8-2.2,12.2-2.8
				l1.1-0.2c11.1-1.5,20.1,0.2,27.1,5c7,4.9,11.4,13.8,13.1,26.8c0.3,2.2-0.4,4.8-2.1,7.8c-1.7,3-3.5,5.9-5.6,8.9
				c-2.1,3-4,5.6-5.8,7.9c-1.8,2.3-2.8,3.8-2.9,4.4c0,2.1-0.1,3.2-0.2,3.4c-0.1,0.2-0.1,0.6,0,1.3c0.2,1.2,0.4,2.3,0.7,3.3
				c0.3,1,0.6,2.7,0.9,5L939.7,457.4z M923.7,471.2c1.8-0.7,3.8-1.2,5.8-1.5c3.8-0.5,7.2-0.1,10.1,1.3c2.9,1.4,4.6,3.5,5,6.5
				c0.2,1.8,0,3.6-0.6,5.4c-0.9,2.2-2.7,4.2-5.3,6.1c-2.6,1.8-5.5,3-8.6,3.4c-2.9,0.4-5.5-0.1-7.8-1.4c-2.3-1.3-3.6-3.4-4-6.4
				c-0.3-2.5,0-5.1,1.1-7.7C920.5,474.2,921.9,472.3,923.7,471.2z"/>
		</g>
	</g>
</g>
</svg>
